<?xml version="1.0" encoding="UTF-8"?>
<svg width="131.32mm" height="131.32mm" version="1.1" viewBox="0 0 131.32 131.32" xmlns="http://www.w3.org/2000/svg" xmlns:cc="http://creativecommons.org/ns#" xmlns:dc="http://purl.org/dc/elements/1.1/" xmlns:rdf="http://www.w3.org/1999/02/22-rdf-syntax-ns#">
  <metadata>
    <rdf:RDF>
      <cc:Work rdf:about="">
        <dc:format>image/svg+xml</dc:format>
        <dc:type rdf:resource="http://purl.org/dc/dcmitype/StillImage"/>
        <dc:title/>
      </cc:Work>
    </rdf:RDF>
  </metadata>
  <g transform="translate(.925 1.275)">
    <circle cx="64.737" cy="64.387" r="64.412" fill="none" stroke="#ff9323" stroke-width="2.5"/>
    <path d="m14.052 24.639c24.589 32.072 19.005 60.482-0.2381 79.191" fill="none" stroke="#ffa74c"/>
    <path d="m115.33 24.758c-24.589 32.072-19.005 60.482 0.23811 79.191" fill="none" stroke="#ffa74c"/>
    <path d="m36.461 6.5133c18.387 33.018 26.315 72.467 0.70229 116.09" fill="none" stroke="#ffa74c"/>
    <path d="m91.914 6.4267c-18.387 33.018-26.315 72.467-0.70229 116.09" fill="none" stroke="#ffa74c" stroke-width="1.0001"/>
    <text x="99.197556" y="71.732941" fill="#000000" font-family="Boomboom" font-size="10.583px" letter-spacing="0px" stroke="#ffa74c" stroke-width=".26458" word-spacing="0px" style="line-height:1.25" xml:space="preserve"/>
  </g>
  <g transform="translate(.925 1.275)">
    <path d="m12.846 101.99c-14.956-20.246-16.254-48.578-3.2233-70.335 1.5007-2.5057 4.1987-6.3824 4.4388-6.3778 0.2294 0.0043 3.9637 5.3613 5.6234 8.0669 7.6699 12.504 11.275 25.401 10.297 36.843-1.0003 11.713-5.6847 21.942-14.382 31.405l-1.6895 1.8383z" fill="#2e90ff"/>
    <path d="m33.848 120.53c-4.6648-2.5941-8.5947-5.4098-12.245-8.7735-2.2388-2.0629-5.4487-5.4494-6.6172-6.9814l-0.70072-0.91868 1.5523-1.6598c18.012-19.259 19.69-43.868 4.6786-68.588-1.1488-1.8918-2.9919-4.6897-4.0959-6.2177l-2.0072-2.7781 1.0915-1.3078c3.5606-4.2662 8.1944-8.4666 12.951-11.74 2.5612-1.7625 7.3074-4.547 7.7502-4.547 0.33986 0 4.0794 7.2615 6.2678 12.171 7.226 16.21 10.588 31.122 10.588 46.964 0 13.663-2.2514 25.228-7.5262 38.661-2.289 5.8294-8.0241 17.298-8.6502 17.298-0.10607 0-1.4725-0.71163-3.0366-1.5814z" fill="#5bff2e"/>
    <path d="m57.209 128.07c-5.5972-0.67916-11.417-2.1816-16.474-4.2526-1.6351-0.66967-3.0133-1.258-3.0627-1.3075-0.04945-0.0494 0.39858-0.92634 0.99564-1.9486 1.9323-3.3086 5.7841-11.375 7.3915-15.48 3.9483-10.083 6.0334-18.459 7.2195-29.004 0.51002-4.534 0.43449-16.142-0.13685-21.034-1.7301-14.815-6.3427-29.33-14.05-44.212l-2.2063-4.2604 2.6868-1.1434c8.27-3.5192 15.798-5.0203 25.176-5.0203 7.6651 0 13.547 0.9157 20.226 3.1486 3.5488 1.1865 6.7183 2.5665 6.5872 2.868-0.04956 0.11399-0.94388 1.8132-1.9874 3.776-7.5671 14.234-12.312 28.869-14.283 44.05-0.67825 5.226-0.68247 18.264-0.0076 23.548 1.5618 12.227 5.0414 23.819 10.614 35.357 1.8303 3.79 4.8111 9.2635 5.1632 9.4811 0.40365 0.24948-5.5445 2.5243-9.271 3.5456-7.7451 2.1227-16.875 2.8244-24.582 1.8892z" fill="#ffff2e"/>
    <path d="m91.34 122.43c0-0.11649-0.8474-1.7536-1.8831-3.638-5.5287-10.059-9.6053-20.719-11.834-30.943-1.8209-8.3551-2.2944-12.958-2.2728-22.093 0.01476-6.243 0.12043-8.3146 0.61406-12.039 1.8769-14.159 5.8148-26.618 12.879-40.746 1.528-3.0559 2.9466-5.7788 3.1525-6.0508 0.35811-0.47314 0.47517-0.44049 2.7033 0.75409 4.4886 2.4065 8.9719 5.5727 13.288 9.3842 1.9093 1.6862 6.5565 6.6946 6.8227 7.3528 0.0729 0.18027-0.70259 1.49-1.7233 2.9104-7.6826 10.692-12.464 21.836-13.959 32.537-0.6033 4.318-0.41032 11.997 0.40384 16.069 1.8811 9.408 6.1352 17.596 13.283 25.566l2.3112 2.5771-1.6681 1.9429c-5.2213 6.0813-11.87 11.391-18.965 15.145-2.8788 1.5233-3.1521 1.6334-3.1521 1.2703z" fill="#5bff2e"/>
    <path d="m112.9 100.7c-1.2695-1.4469-2.9883-3.5602-3.8194-4.6964-9.2135-12.595-11.994-27.249-8.0786-42.585 2.1103-8.2668 6.3556-17.031 12.252-25.293 1.1151-1.5625 2.0952-2.8425 2.1779-2.8443 0.25203-0.0055 2.4798 3.2095 4.2368 6.1143 12.455 20.592 12.209 46.393-0.64038 67.04-1.651 2.6528-3.2967 4.8948-3.5932 4.8948-0.12456 0-1.2652-1.1838-2.5347-2.6306z" fill="#2e90ff"/>
  </g>
  <g transform="translate(-36.343 -70)">
    <g transform="translate(0,1.5875)" fill="#ff9323" stroke="#583200" stroke-width=".52864" aria-label="ENGINE">
      <path d="m62.671 169.92q-2.3066 0-2.3066-2.3546v-12.206q0-2.3546 2.3066-2.3546h7.9289q1.1052 0 1.7059 0.69678 0.6247 0.69679 0.6247 1.6579 0 0.96109-0.6247 1.6579-0.60068 0.69679-1.7059 0.69679h-5.5983v1.6098h4.6613q1.0091 0 1.5618 0.64874 0.57665 0.6247 0.57665 1.4897 0 0.86497-0.57665 1.5137-0.55262 0.62471-1.5618 0.62471h-4.6613v1.6338h5.5983q1.1052 0 1.7059 0.69679 0.6247 0.67275 0.6247 1.6338 0 0.96108-0.6247 1.6579-0.60068 0.69678-1.7059 0.69678z"/>
      <path d="m84.839 155.14q0-1.0812 0.64873-1.6338 0.67276-0.57666 1.6098-0.57666 0.889 0 1.5377 0.57666 0.67276 0.55262 0.67276 1.6338v12.542q0 0.55263-0.19222 0.98512-0.19222 0.43248-0.50457 0.74484-0.28832 0.28832-0.69679 0.45651-0.38443 0.14416-0.81692 0.14416-0.57665 0-1.1293-0.28832-0.55262-0.28833-0.96108-0.91303l-4.3729-6.5114v5.5022q0 1.0812-0.67276 1.6579-0.64873 0.55262-1.5858 0.55262-0.889 0-1.5377-0.55262-0.64873-0.57665-0.64873-1.6579v-12.566q0-0.5286 0.16819-0.96109 0.19222-0.43249 0.50457-0.72081 0.31235-0.31235 0.69679-0.45652 0.38443-0.16819 0.81692-0.16819 0.60068 0 1.1533 0.28833 0.55262 0.2643 0.96108 0.889l4.3489 6.5114z"/>
      <path d="m104.76 167.56q0 1.1533-0.69678 1.754-0.67276 0.60067-1.6819 0.60067h-1.7059q-2.0904 0-3.6761-0.69678-1.5858-0.72081-2.643-1.8981-1.0332-1.1773-1.5618-2.667t-0.5286-3.0755q0-1.73 0.5286-3.2917 0.55262-1.5618 1.6579-2.7391 1.1052-1.1773 2.7391-1.8501 1.6338-0.69678 3.8443-0.69678h1.3455q0.57665 0 1.0091 0.21624 0.45651 0.19222 0.74484 0.5286 0.31235 0.33638 0.45651 0.76886 0.16819 0.40846 0.16819 0.86498 0 0.45651-0.16819 0.889-0.14416 0.43249-0.45651 0.76887-0.28833 0.31235-0.74484 0.5286-0.43249 0.19221-1.0091 0.19221h-1.7059q-0.98511 0-1.7059 0.31235-0.72081 0.31236-1.2254 0.84095-0.48054 0.50457-0.72081 1.1773t-0.24027 1.3696q0 0.72081 0.19222 1.3936 0.19222 0.64873 0.60068 1.1773 0.43249 0.50457 1.0572 0.81693 0.64873 0.31235 1.5377 0.3604v-2.7871q0-1.0812 0.67276-1.6819 0.69678-0.60068 1.6098-0.60068 0.93706 0 1.6098 0.60068 0.69678 0.60068 0.69678 1.6819z"/>
      <path d="m112.66 167.68q0 1.1533-0.69679 1.754-0.69678 0.57665-1.6338 0.57665-0.96108 0-1.6579-0.57665-0.67276-0.60068-0.67276-1.754v-12.446q0-1.1052 0.67276-1.7059 0.69679-0.60068 1.6579-0.60068 0.93706 0 1.6338 0.60068 0.69679 0.60068 0.69679 1.7059z"/>
      <path d="m124.62 155.14q0-1.0812 0.64873-1.6338 0.67276-0.57666 1.6098-0.57666 0.88901 0 1.5377 0.57666 0.67276 0.55262 0.67276 1.6338v12.542q0 0.55263-0.19222 0.98512-0.19222 0.43248-0.50457 0.74484-0.28832 0.28832-0.69678 0.45651-0.38444 0.14416-0.81693 0.14416-0.57665 0-1.1293-0.28832-0.55262-0.28833-0.96108-0.91303l-4.3729-6.5114v5.5022q0 1.0812-0.67275 1.6579-0.64874 0.55262-1.5858 0.55262-0.88901 0-1.5377-0.55262-0.64873-0.57665-0.64873-1.6579v-12.566q0-0.5286 0.16819-0.96109 0.19222-0.43249 0.50457-0.72081 0.31235-0.31235 0.69679-0.45652 0.38443-0.16819 0.81692-0.16819 0.60067 0 1.1533 0.28833 0.55262 0.2643 0.96108 0.889l4.3489 6.5114z"/>
      <path d="m134.71 169.92q-2.3066 0-2.3066-2.3546v-12.206q0-2.3546 2.3066-2.3546h7.9289q1.1052 0 1.7059 0.69678 0.6247 0.69679 0.6247 1.6579 0 0.96109-0.6247 1.6579-0.60068 0.69679-1.7059 0.69679h-5.5983v1.6098h4.6613q1.0091 0 1.5618 0.64874 0.57665 0.6247 0.57665 1.4897 0 0.86497-0.57665 1.5137-0.55263 0.62471-1.5618 0.62471h-4.6613v1.6338h5.5983q1.1052 0 1.7059 0.69679 0.6247 0.67275 0.6247 1.6338 0 0.96108-0.6247 1.6579-0.60068 0.69678-1.7059 0.69678z"/>
    </g>
  </g>
  <g transform="translate(-36.343 -70)" stroke="#000">
    <g fill="red" stroke-width=".45196" aria-label="S">
      <path d="m59.906 109.94q-3.2421 0-6.1003 1.2798-3.0715 1.3651-4.7778 3.8393-1.877 2.6875-1.877 6.1856 0 3.5834 1.877 6.2709 1.877 2.6449 5.2044 3.9673 2.7728 1.1091 5.6737 1.1091h4.2659q0.42659 0 1.0665 0.17063-0.63989 0.12798-1.0665 0.12798h-11.433q-2.3036 0-3.9673 1.6637-1.621 1.621-1.621 3.9246 0 2.3036 1.621 3.9673 1.6637 1.621 3.9673 1.621h11.475q3.2421 0 6.1003-1.2798 3.0715-1.3651 4.8631-3.9246 1.7917-2.6022 1.7917-6.1003 0-3.5834-1.877-6.2282-1.877-2.6875-5.2044-4.01-2.7728-1.1091-5.6737-1.1091h-4.2659q-0.42659 0-1.0665-0.17064 0.63989-0.12798 1.0665-0.12798h11.433q2.3036 0 3.9246-1.621 1.6637-1.6637 1.6637-3.9673 0-2.3036-1.6637-3.9246-1.621-1.6637-3.9246-1.6637z" fill="#f70" stroke="#000" stroke-width=".45196"/>
    </g>
    <g fill="#f70" stroke-width=".45196" aria-label="N">
      <path d="m125.69 112.26q-0.93334 1.4-0.93334 3.097v22.824q0 2.2909 1.6121 3.9455 1.6545 1.6121 3.9455 1.6121 2.2909 0 3.903-1.6121 1.6546-1.6546 1.6546-3.9455v-9.4182l13.364 13.364q1.6121 1.6121 3.903 1.6121 2.9697 0 4.6242-2.4606 0.93333-1.4 0.93333-3.097v-22.824q0-2.2909-1.6545-3.903-1.6121-1.6546-3.903-1.6546t-3.9455 1.6546q-1.6121 1.6121-1.6121 3.903v9.4182l-13.364-13.364q-1.6121-1.6121-3.903-1.6121-2.9697 0-4.6242 2.4606z" fill="#f70" stroke="#000" stroke-width=".45196"/>
    </g>
    <g fill="#f70" stroke-width=".46546" aria-label="U">
      <path d="m106.21 113.13v14.636q0 2.5122-1.0923 4.806-1.3107 2.7853-4.6421 2.7853-3.2768 0-4.5875-2.7853-1.0923-2.2938-1.0923-4.806v-14.636q0-2.9491-2.1299-5.0244-2.0753-2.1299-5.0244-2.1299t-5.0791 2.1299q-2.0753 2.0753-2.0753 5.0244v14.691q0 5.6252 2.3484 10.595 2.5122 5.2975 6.9359 8.192 4.6421 3.0584 10.704 3.0584 6.1167 0 10.704-3.0037 4.6422-3.0584 7.0998-8.6289 2.2392-5.1337 2.2392-10.213v-14.691q0-2.9491-2.1299-5.0244-2.0753-2.1299-5.0244-2.1299t-5.079 2.1299q-2.0753 2.0753-2.0753 5.0244z" fill="#f70" stroke="#000" stroke-width=".46546"/>
    </g>
  </g>
</svg>
