<?xml version="1.0" encoding="UTF-8" standalone="no"?>
<!-- Created with Inkscape (http://www.inkscape.org/) -->

<svg
   xmlns:dc="http://purl.org/dc/elements/1.1/"
   xmlns:cc="http://creativecommons.org/ns#"
   xmlns:rdf="http://www.w3.org/1999/02/22-rdf-syntax-ns#"
   xmlns:svg="http://www.w3.org/2000/svg"
   xmlns="http://www.w3.org/2000/svg"
   xmlns:sodipodi="http://sodipodi.sourceforge.net/DTD/sodipodi-0.dtd"
   xmlns:inkscape="http://www.inkscape.org/namespaces/inkscape"
   width="129.12392mm"
   height="129.12392mm"
   viewBox="0 0 129.12392 129.12392"
   version="1.1"
   id="svg8"
   sodipodi:docname="favicon5.svg"
   inkscape:version="0.92.3 (5aff6ba, 2018-11-25)"
   inkscape:export-filename="/home/okeanij/Изображения/v2/favicon5-16x16.png"
   inkscape:export-xdpi="3.1388562"
   inkscape:export-ydpi="3.1388562">
  <defs
     id="defs2" />
  <sodipodi:namedview
     id="base"
     pagecolor="#ffffff"
     bordercolor="#666666"
     borderopacity="1.0"
     inkscape:pageopacity="0.0"
     inkscape:pageshadow="2"
     inkscape:zoom="1"
     inkscape:cx="217.64026"
     inkscape:cy="240.92932"
     inkscape:document-units="mm"
     inkscape:current-layer="layer1"
     showgrid="false"
     inkscape:snap-intersection-paths="true"
     inkscape:snap-smooth-nodes="true"
     inkscape:object-paths="true"
     inkscape:window-width="1366"
     inkscape:window-height="740"
     inkscape:window-x="0"
     inkscape:window-y="28"
     inkscape:window-maximized="1" />
  <metadata
     id="metadata5">
    <rdf:RDF>
      <cc:Work
         rdf:about="">
        <dc:format>image/svg+xml</dc:format>
        <dc:type
           rdf:resource="http://purl.org/dc/dcmitype/StillImage" />
        <dc:title></dc:title>
      </cc:Work>
    </rdf:RDF>
  </metadata>
  <g
     inkscape:label="Borders"
     inkscape:groupmode="layer"
     id="layer1"
     style="display:inline"
     transform="translate(-37.267732,-71.274515)">
    <circle
       style="fill:none;fill-opacity:1;stroke:#ff3d00;stroke-width:0.65;stroke-miterlimit:4;stroke-dasharray:none;stroke-opacity:1"
       id="path815"
       cx="101.82969"
       cy="135.83647"
       r="64.411957" />
    <path
       style="fill:none;stroke:#ff3d00;stroke-width:1;stroke-linecap:butt;stroke-linejoin:miter;stroke-miterlimit:4;stroke-dasharray:none;stroke-opacity:1"
       d="M 51.144646,96.088181 C 75.733441,128.16054 70.149948,156.57039 50.906541,175.27925"
       id="path819"
       inkscape:connector-curvature="0"
       sodipodi:nodetypes="cc" />
    <path
       style="fill:none;stroke:#ff3d00;stroke-width:1;stroke-linecap:butt;stroke-linejoin:miter;stroke-miterlimit:4;stroke-dasharray:none;stroke-opacity:1"
       d="m 152.42219,96.207368 c -24.58881,32.072362 -19.00531,60.482212 0.23811,79.191072"
       id="path819-3"
       inkscape:connector-curvature="0"
       sodipodi:nodetypes="cc" />
    <path
       style="fill:none;stroke:#ff3d00;stroke-width:1;stroke-linecap:butt;stroke-linejoin:miter;stroke-miterlimit:4;stroke-dasharray:none;stroke-opacity:1"
       d="M 73.553523,77.962825 C 91.940718,110.98041 99.868568,150.42982 74.255812,194.04799"
       id="path840"
       inkscape:connector-curvature="0" />
    <path
       style="fill:none;stroke:#ff3d00;stroke-width:1;stroke-linecap:butt;stroke-linejoin:miter;stroke-miterlimit:4;stroke-dasharray:none;stroke-opacity:1"
       d="M 129.00716,77.876168 C 110.61995,110.89373 102.6921,150.34314 128.30487,193.96131"
       id="path840-3"
       inkscape:connector-curvature="0" />
    <text
       xml:space="preserve"
       style="font-style:normal;font-variant:normal;font-weight:normal;font-stretch:normal;font-size:10.58333302px;line-height:1.25;font-family:Boomboom;-inkscape-font-specification:Boomboom;letter-spacing:0px;word-spacing:0px;fill:#000000;fill-opacity:1;stroke:none;stroke-width:0.26458332"
       x="136.29028"
       y="143.18245"
       id="text859"><tspan
         sodipodi:role="line"
         id="tspan857"
         x="136.29028"
         y="152.44287"
         style="stroke-width:0.26458332" /></text>
  </g>
  <g
     inkscape:groupmode="layer"
     id="layer5"
     inkscape:label="Colors"
     style="display:inline"
     transform="translate(-37.267732,-71.274515)"
     sodipodi:insensitive="true">
    <path
       style="display:inline;fill:#3392ff;fill-opacity:1;stroke:none;stroke-width:1.13385832;stroke-miterlimit:4;stroke-dasharray:none;stroke-opacity:1"
       d="m 188.74594,655.51962 c -56.52526,-76.52087 -61.43252,-183.60046 -12.18258,-265.83187 5.67201,-9.47042 15.86929,-24.12233 16.77649,-24.10523 0.86701,0.0163 14.98092,20.2632 21.25373,30.48916 28.98863,47.25736 42.61236,96.00233 38.91899,139.25 -3.78063,44.26939 -21.48547,82.93111 -54.35682,118.69794 l -6.38547,6.94794 z"
       id="path3315"
       inkscape:connector-curvature="0"
       transform="scale(0.26458333)" />
    <path
       style="display:inline;fill:#00ff6f;fill-opacity:1;stroke:none;stroke-width:1.13385832;stroke-miterlimit:4;stroke-dasharray:none;stroke-opacity:1"
       d="m 268.12087,725.59477 c -17.63077,-9.80451 -32.48405,-20.44654 -46.28157,-33.15968 -8.4617,-7.79666 -20.59342,-20.5961 -25.00994,-26.38646 l -2.64838,-3.4722 5.86688,-6.27325 c 68.07513,-72.79035 74.41955,-165.79999 17.68283,-259.2315 -4.34187,-7.15 -11.30808,-17.725 -15.48046,-23.5 l -7.58616,-10.5 4.12534,-4.94287 c 13.45725,-16.12414 30.97081,-31.99984 48.94927,-44.37155 9.68007,-6.66125 27.61838,-17.18558 29.29217,-17.18558 1.28453,0 15.4183,27.44496 23.68936,46 27.31071,61.268 40.01652,117.62679 40.01652,177.5 0,51.63907 -8.5092,95.35035 -28.44535,146.12216 -8.65123,22.03224 -30.32723,65.37784 -32.69376,65.37784 -0.40089,0 -5.56543,-2.68961 -11.47675,-5.97691 z"
       id="path3317"
       inkscape:connector-curvature="0"
       transform="scale(0.26458333)" />
    <path
       style="display:inline;fill:#ceff00;fill-opacity:1;stroke:none;stroke-width:1.13385832;stroke-miterlimit:4;stroke-dasharray:none;stroke-opacity:1"
       d="m 356.41474,754.08072 c -21.15462,-2.56688 -43.1517,-8.24525 -62.26303,-16.07272 -6.17974,-2.53105 -11.38882,-4.75483 -11.57573,-4.94174 -0.18691,-0.18691 1.50645,-3.50112 3.76303,-7.36492 7.30327,-12.50491 21.86116,-42.99386 27.93624,-58.5075 14.92275,-38.10756 22.80327,-69.7672 27.28646,-109.62216 1.92762,-17.13627 1.64218,-61.00907 -0.51724,-79.5 -6.53904,-55.99331 -23.97242,-110.85419 -53.10078,-167.10213 l -8.33859,-16.10213 10.15482,-4.32134 c 31.25653,-13.30109 59.70766,-18.9744 95.15482,-18.9744 28.97056,0 51.20216,3.4609 76.44398,11.9004 13.41291,4.48456 25.39199,9.70008 24.89657,10.83962 -0.1873,0.43084 -3.56742,6.85308 -7.51137,14.27166 -28.60014,53.79689 -46.53507,109.1111 -53.98174,166.48832 -2.56348,19.75185 -2.5794,69.03103 -0.0288,89 5.90286,46.21332 19.05425,90.02417 40.11495,133.63378 6.91777,14.32436 18.18367,35.01167 19.51462,35.83424 1.52562,0.94289 -20.95565,9.54069 -35.03983,13.40074 -29.27291,8.02281 -63.77954,10.67475 -92.90843,7.14028 z"
       id="path3319"
       inkscape:connector-curvature="0"
       transform="scale(0.26458333)" />
    <path
       style="display:inline;fill:#00ff6f;fill-opacity:1;stroke:none;stroke-width:1.13385832;stroke-miterlimit:4;stroke-dasharray:none;stroke-opacity:1"
       d="m 485.41474,732.77118 c 0,-0.44028 -3.20278,-6.62778 -7.11728,-13.75 -20.8957,-38.01857 -36.30359,-78.30787 -44.72514,-116.9495 -6.88215,-31.57823 -8.67183,-48.97456 -8.59019,-83.5 0.0558,-23.59569 0.45517,-31.42538 2.32085,-45.5 7.09374,-53.51478 21.97729,-100.60225 48.67677,-154 5.77514,-11.55 11.13689,-21.84113 11.915,-22.86917 1.3535,-1.78825 1.79592,-1.66483 10.21738,2.85011 16.96485,9.09527 33.90957,21.06232 50.22049,35.46776 7.21617,6.37316 24.7806,25.30227 25.78657,27.79007 0.2755,0.68132 -2.65545,5.63132 -6.51322,11 -29.03656,40.40886 -47.10793,82.53091 -52.75848,122.97331 -2.2802,16.32002 -1.5508,45.3433 1.52634,60.73319 7.10963,35.55789 23.18797,66.504 50.20419,96.62833 l 8.73521,9.74017 -6.30473,7.34311 c -19.73422,22.98444 -44.8639,43.05222 -71.68014,57.24153 -10.88064,5.75729 -11.91362,6.17357 -11.91362,4.80109 z"
       id="path3321"
       inkscape:connector-curvature="0"
       transform="scale(0.26458333)" />
    <path
       style="display:inline;fill:#3392ff;fill-opacity:1;stroke:none;stroke-width:1.13385832;stroke-miterlimit:4;stroke-dasharray:none;stroke-opacity:1"
       d="m 566.91569,650.62907 c -4.79826,-5.46843 -11.2942,-13.45593 -14.43543,-17.75 -34.82278,-47.60278 -45.32985,-102.98872 -30.53337,-160.95068 7.97609,-31.24461 24.02129,-64.3691 46.305,-95.59433 4.21457,-5.90569 7.9187,-10.74319 8.23141,-10.75 0.95257,-0.0207 9.37266,12.13049 16.01327,23.10914 47.07477,77.82681 46.14326,175.34464 -2.42033,253.37848 -6.23986,10.02646 -12.46014,18.5 -13.58052,18.5 -0.47076,0 -4.78177,-4.47417 -9.58003,-9.94261 z"
       id="path3323"
       inkscape:connector-curvature="0"
       transform="scale(0.26458333)" />
  </g>
</svg>
