<?xml version="1.0" encoding="UTF-8" standalone="no"?>
<svg
   xmlns:dc="http://purl.org/dc/elements/1.1/"
   xmlns:cc="http://creativecommons.org/ns#"
   xmlns:rdf="http://www.w3.org/1999/02/22-rdf-syntax-ns#"
   xmlns:svg="http://www.w3.org/2000/svg"
   xmlns="http://www.w3.org/2000/svg"
   xmlns:sodipodi="http://sodipodi.sourceforge.net/DTD/sodipodi-0.dtd"
   xmlns:inkscape="http://www.inkscape.org/namespaces/inkscape"
   width="131.32391mm"
   height="131.32391mm"
   viewBox="0 0 131.32391 131.32391"
   version="1.1"
   id="svg8"
   sodipodi:docname="SunEngine.svg"
   inkscape:version="1.0beta1 (fe3e306, 2019-09-17)"
   inkscape:export-filename="C:\Users\Okeanij\Desktop\SunEngineOrange2.png"
   inkscape:export-xdpi="93.160469"
   inkscape:export-ydpi="93.160469">
  <defs
     id="defs2" />
  <sodipodi:namedview
     id="base"
     pagecolor="#ffffff"
     bordercolor="#666666"
     borderopacity="1.0"
     inkscape:pageopacity="0.0"
     inkscape:pageshadow="2"
     inkscape:zoom="0.98994949"
     inkscape:cx="297.4916"
     inkscape:cy="225.3103"
     inkscape:document-units="mm"
     inkscape:current-layer="layer4"
     showgrid="false"
     inkscape:snap-intersection-paths="true"
     inkscape:snap-smooth-nodes="true"
     inkscape:object-paths="true"
     inkscape:window-width="1366"
     inkscape:window-height="738"
     inkscape:window-x="0"
     inkscape:window-y="0"
     inkscape:window-maximized="0"
     inkscape:document-rotation="0" />
  <metadata
     id="metadata5">
    <rdf:RDF>
      <cc:Work
         rdf:about="">
        <dc:format>image/svg+xml</dc:format>
        <dc:type
           rdf:resource="http://purl.org/dc/dcmitype/StillImage" />
        <dc:title></dc:title>
      </cc:Work>
    </rdf:RDF>
  </metadata>
  <g
     inkscape:groupmode="layer"
     id="layer2"
     inkscape:label="Lines"
     style="display:inline"
     transform="translate(0.92499542,1.2749939)">
    <circle
       r="64.411957"
       cy="64.386963"
       cx="64.736961"
       id="path815"
       style="opacity:1;fill:none;fill-opacity:1;stroke:#ff9323;stroke-width:2.5;stroke-miterlimit:4;stroke-dasharray:none;stroke-opacity:1;stop-opacity:1" />
    <path
       sodipodi:nodetypes="cc"
       inkscape:connector-curvature="0"
       id="path819"
       d="M 14.051915,24.638669 C 38.64071,56.711028 33.057217,85.120878 13.81381,103.82974"
       style="opacity:1;fill:none;stroke:#ffa74c;stroke-width:1;stroke-linecap:butt;stroke-linejoin:miter;stroke-miterlimit:4;stroke-dasharray:none;stroke-opacity:1;stop-opacity:1" />
    <path
       sodipodi:nodetypes="cc"
       inkscape:connector-curvature="0"
       id="path819-3"
       d="M 115.32946,24.757856 C 90.740649,56.830218 96.324149,85.240068 115.56757,103.94893"
       style="opacity:1;fill:none;stroke:#ffa74c;stroke-width:1;stroke-linecap:butt;stroke-linejoin:miter;stroke-miterlimit:4;stroke-dasharray:none;stroke-opacity:1;stop-opacity:1" />
    <path
       inkscape:connector-curvature="0"
       id="path840"
       d="M 36.460792,6.513313 C 54.847987,39.530898 62.775837,78.980308 37.163081,122.59848"
       style="opacity:1;fill:none;stroke:#ffa74c;stroke-width:1;stroke-linecap:butt;stroke-linejoin:miter;stroke-miterlimit:4;stroke-dasharray:none;stroke-opacity:1;stop-opacity:1" />
    <path
       inkscape:connector-curvature="0"
       id="path840-3"
       d="M 91.914429,6.426656 C 73.527219,39.444218 65.599369,78.893628 91.212139,122.5118"
       style="opacity:1;fill:none;stroke:#ffa74c;stroke-width:1.00013;stroke-linecap:butt;stroke-linejoin:miter;stroke-miterlimit:4;stroke-dasharray:none;stroke-opacity:1;stop-opacity:1" />
    <text
       id="text859"
       y="71.732941"
       x="99.197556"
       style="font-style:normal;font-variant:normal;font-weight:normal;font-stretch:normal;font-size:10.5833px;line-height:1.25;font-family:Boomboom;-inkscape-font-specification:Boomboom;letter-spacing:0px;word-spacing:0px;opacity:1;fill:#000000;fill-opacity:1;stroke:#ffa74c;stroke-width:0.264583;stroke-opacity:1;stop-opacity:1"
       xml:space="preserve" />
  </g>
  <g
     inkscape:groupmode="layer"
     id="layer1"
     inkscape:label="Colors"
     style="display:inline"
     transform="translate(0.92499542,1.2749939)">
    <path
       inkscape:connector-curvature="0"
       id="path3315"
       d="M 12.846297,101.99005 C -2.1093442,81.743905 -3.4077234,53.412431 9.6229897,31.655371 c 1.5007193,-2.505716 4.1987493,-6.382367 4.4387793,-6.377842 0.229397,0.0043 3.963702,5.361304 5.623383,8.066923 7.669908,12.50351 11.27452,25.400616 10.297316,36.843229 C 28.982176,81.900623 24.297771,92.12987 15.60056,101.59318 l -1.689489,1.83831 z"
       style="display:inline;fill:#2e90ff;fill-opacity:1;stroke:none;stroke-width:0.3;stroke-miterlimit:4;stroke-dasharray:none;stroke-opacity:1" />
    <path
       inkscape:connector-curvature="0"
       id="path3317"
       d="m 33.847581,120.53077 c -4.664808,-2.59411 -8.594738,-5.40982 -12.245332,-8.7735 -2.238825,-2.06287 -5.448676,-5.44938 -6.617213,-6.98142 l -0.700718,-0.91868 1.552279,-1.6598 C 33.848142,82.938256 35.526769,58.329455 20.515179,33.609035 19.366393,31.717265 17.52325,28.919296 16.419307,27.391327 l -2.007171,-2.778125 1.091496,-1.307801 c 3.560564,-4.266179 8.19436,-8.466624 12.951161,-11.739972 2.561185,-1.762456 7.307363,-4.5470183 7.75022,-4.5470183 0.339865,0 4.079425,7.2614793 6.26781,12.1708333 7.225958,16.210491 10.587704,31.122088 10.587704,46.963541 0,13.662837 -2.251393,25.228113 -7.526166,38.661485 -2.288971,5.82937 -8.024079,17.29789 -8.650224,17.29789 -0.106068,0 -1.47252,-0.71163 -3.036556,-1.58139 z"
       style="display:inline;fill:#5bff2e;fill-opacity:1;stroke:none;stroke-width:0.3;stroke-miterlimit:4;stroke-dasharray:none;stroke-opacity:1" />
    <path
       inkscape:connector-curvature="0"
       id="path3319"
       d="m 57.208667,128.06768 c -5.59716,-0.67916 -11.417221,-2.18156 -16.47376,-4.25258 -1.635056,-0.66967 -3.013292,-1.25805 -3.062745,-1.3075 -0.04945,-0.0494 0.398581,-0.92634 0.995635,-1.94863 1.932323,-3.3086 5.784098,-11.37546 7.391463,-15.48011 3.948311,-10.082629 6.033365,-18.459242 7.219543,-29.0042 C 53.788819,71.540688 53.713296,59.932677 53.14195,55.040285 51.411829,40.225389 46.799247,25.710114 39.092368,10.827847 L 36.886116,6.5674919 39.572913,5.4241374 c 8.269956,-3.5192467 15.797651,-5.02030997 25.176379,-5.02030997 7.665127,0 13.547238,0.91569647 20.225802,3.14864747 3.548833,1.1865398 6.718298,2.5664795 6.587218,2.8679827 -0.04956,0.1139931 -0.94388,1.8132108 -1.987383,3.7760434 -7.567121,14.23376 -12.312404,28.868978 -14.282669,44.050034 -0.678254,5.22601 -0.682466,18.26446 -0.0076,23.547916 1.561798,12.227275 5.041437,23.818899 10.613747,35.357269 1.830327,3.78999 4.811096,9.26351 5.163243,9.48114 0.403654,0.24948 -5.544515,2.52431 -9.270955,3.54562 -7.745124,2.1227 -16.875003,2.82436 -24.582021,1.8892 z"
       style="display:inline;fill:#ffff2e;fill-opacity:1;stroke:none;stroke-width:0.3;stroke-miterlimit:4;stroke-dasharray:none;stroke-opacity:1" />
    <path
       inkscape:connector-curvature="0"
       id="path3321"
       d="m 91.339916,122.42953 c 0,-0.11649 -0.847402,-1.7536 -1.883113,-3.63802 C 83.928149,108.73243 79.851478,98.072549 77.623276,87.848618 75.802374,79.493545 75.328855,74.890766 75.350455,65.75591 c 0.01476,-6.243026 0.120431,-8.314632 0.614058,-12.038542 1.876886,-14.159118 5.814825,-26.617678 12.879062,-40.745832 1.528006,-3.0559379 2.946636,-5.7787993 3.152511,-6.0508015 0.358113,-0.4731412 0.47517,-0.4404863 2.703348,0.7540915 4.488617,2.406457 8.971906,5.572739 13.287506,9.384178 1.90928,1.686232 6.55653,6.694559 6.8227,7.352789 0.0729,0.180266 -0.70259,1.489954 -1.72329,2.910417 -7.68259,10.691511 -12.46398,21.836303 -13.959019,32.536688 -0.603303,4.318005 -0.410315,11.997081 0.403844,16.068989 1.881095,9.408025 6.135155,17.59585 13.283195,25.566243 l 2.31119,2.57709 -1.66813,1.94286 c -5.22134,6.0813 -11.87024,11.3909 -18.965368,15.14516 -2.878836,1.52328 -3.152146,1.63342 -3.152146,1.27029 z"
       style="display:inline;fill:#5bff2e;fill-opacity:1;stroke:none;stroke-width:0.3;stroke-miterlimit:4;stroke-dasharray:none;stroke-opacity:1" />
    <path
       inkscape:connector-curvature="0"
       id="path3323"
       d="m 112.90371,100.69609 c -1.26954,-1.446851 -2.98826,-3.560211 -3.81938,-4.69635 -9.213522,-12.594902 -11.993518,-27.249099 -8.07862,-42.584867 2.11034,-8.266803 6.35564,-17.030991 12.25154,-25.292666 1.1151,-1.562547 2.09515,-2.842469 2.17789,-2.844271 0.25203,-0.0055 2.47985,3.209525 4.23684,6.114293 12.4552,20.591677 12.20874,46.393269 -0.64038,67.039722 -1.65096,2.652839 -3.29674,4.894789 -3.59317,4.894789 -0.12456,0 -1.26518,-1.18379 -2.53472,-2.63065 z"
       style="display:inline;fill:#2e90ff;fill-opacity:1;stroke:none;stroke-width:0.3;stroke-miterlimit:4;stroke-dasharray:none;stroke-opacity:1" />
  </g>
  <g
     inkscape:groupmode="layer"
     id="layer4"
     inkscape:label="engine"
     style="display:inline"
     transform="translate(-36.342737,-69.999521)">
    <g
       transform="translate(0,1.5875)"
       aria-label="ENGINE"
       id="text1036"
       style="font-style:normal;font-variant:normal;font-weight:normal;font-stretch:normal;font-size:24.0271px;line-height:1.25;font-family:Boomboom;-inkscape-font-specification:Boomboom;letter-spacing:0px;word-spacing:0px;display:inline;fill:#ff9323;fill-opacity:1;stroke:#583200;stroke-width:0.528639;stroke-miterlimit:4;stroke-dasharray:none;stroke-opacity:1">
      <path
         inkscape:connector-curvature="0"
         d="m 62.670983,169.91888 q -2.306602,0 -2.306602,-2.35465 v -12.20577 q 0,-2.35465 2.306602,-2.35465 h 7.928943 q 1.105246,0 1.705924,0.69678 0.624705,0.69679 0.624705,1.65787 0,0.96109 -0.624705,1.65787 -0.600678,0.69679 -1.705924,0.69679 h -5.598314 v 1.60981 h 4.661257 q 1.009138,0 1.561761,0.64874 0.576651,0.6247 0.576651,1.48968 0,0.86497 -0.576651,1.5137 -0.552623,0.62471 -1.561761,0.62471 h -4.661257 v 1.63384 h 5.598314 q 1.105246,0 1.705924,0.69679 0.624705,0.67275 0.624705,1.63384 0,0.96108 -0.624705,1.65787 -0.600678,0.69678 -1.705924,0.69678 z"
         style="font-style:normal;font-variant:normal;font-weight:normal;font-stretch:normal;font-family:Junegull;-inkscape-font-specification:Junegull;letter-spacing:1.37107px;word-spacing:0.00274214px;fill:#ff9323;fill-opacity:1;stroke:#583200;stroke-width:0.528639;stroke-miterlimit:4;stroke-dasharray:none;stroke-opacity:1"
         id="path3217" />
      <path
         inkscape:connector-curvature="0"
         d="m 84.839009,155.14222 q 0,-1.08122 0.648732,-1.63384 0.672759,-0.57666 1.609816,-0.57666 0.889002,0 1.537734,0.57666 0.672759,0.55262 0.672759,1.63384 v 12.54214 q 0,0.55263 -0.192217,0.98512 -0.192217,0.43248 -0.504569,0.74484 -0.288325,0.28832 -0.696786,0.45651 -0.384434,0.14416 -0.816921,0.14416 -0.576651,0 -1.129274,-0.28832 -0.552623,-0.28833 -0.961084,-0.91303 l -4.372932,-6.51135 v 5.50221 q 0,1.08122 -0.672759,1.65787 -0.648732,0.55262 -1.585789,0.55262 -0.889002,0 -1.537734,-0.55262 -0.648732,-0.57665 -0.648732,-1.65787 v -12.56617 q 0,-0.5286 0.16819,-0.96109 0.192217,-0.43249 0.504569,-0.72081 0.312353,-0.31235 0.696786,-0.45652 0.384434,-0.16819 0.816921,-0.16819 0.600678,0 1.153301,0.28833 0.552624,0.2643 0.961084,0.889 l 4.348905,6.51135 z"
         style="font-style:normal;font-variant:normal;font-weight:normal;font-stretch:normal;font-family:Junegull;-inkscape-font-specification:Junegull;letter-spacing:1.37107px;word-spacing:0.00274214px;fill:#ff9323;fill-opacity:1;stroke:#583200;stroke-width:0.528639;stroke-miterlimit:4;stroke-dasharray:none;stroke-opacity:1"
         id="path3219" />
      <path
         inkscape:connector-curvature="0"
         d="m 104.75787,167.56423 q 0,1.1533 -0.69678,1.75398 -0.67276,0.60067 -1.6819,0.60067 h -1.70592 q -2.09036,0 -3.676149,-0.69678 -1.585788,-0.72081 -2.642981,-1.89814 -1.033165,-1.17733 -1.561761,-2.66701 -0.528596,-1.48968 -0.528596,-3.07547 0,-1.72995 0.528596,-3.29171 0.552623,-1.56176 1.65787,-2.73909 1.105246,-1.17733 2.739089,-1.85009 1.633843,-0.69678 3.844332,-0.69678 h 1.34552 q 0.57665,0 1.00914,0.21624 0.45651,0.19222 0.74484,0.5286 0.31235,0.33638 0.45651,0.76886 0.16819,0.40846 0.16819,0.86498 0,0.45651 -0.16819,0.889 -0.14416,0.43249 -0.45651,0.76887 -0.28833,0.31235 -0.74484,0.5286 -0.43249,0.19221 -1.00914,0.19221 h -1.70592 q -0.985114,0 -1.705927,0.31235 -0.720813,0.31236 -1.225382,0.84095 -0.480542,0.50457 -0.720813,1.17733 -0.240271,0.67276 -0.240271,1.36955 0,0.72081 0.192217,1.39357 0.192217,0.64873 0.600678,1.17732 0.432487,0.50457 1.057192,0.81693 0.648732,0.31235 1.537736,0.3604 v -2.78714 q 0,-1.08122 0.67276,-1.6819 0.69678,-0.60068 1.60981,-0.60068 0.93706,0 1.60982,0.60068 0.69678,0.60068 0.69678,1.6819 z"
         style="font-style:normal;font-variant:normal;font-weight:normal;font-stretch:normal;font-family:Junegull;-inkscape-font-specification:Junegull;letter-spacing:1.37107px;word-spacing:0.00274214px;fill:#ff9323;fill-opacity:1;stroke:#583200;stroke-width:0.528639;stroke-miterlimit:4;stroke-dasharray:none;stroke-opacity:1"
         id="path3221" />
      <path
         inkscape:connector-curvature="0"
         d="m 112.66394,167.68436 q 0,1.1533 -0.69679,1.75398 -0.69678,0.57665 -1.63384,0.57665 -0.96108,0 -1.65787,-0.57665 -0.67276,-0.60068 -0.67276,-1.75398 v -12.44603 q 0,-1.10525 0.67276,-1.70593 0.69679,-0.60068 1.65787,-0.60068 0.93706,0 1.63384,0.60068 0.69679,0.60068 0.69679,1.70593 z"
         style="font-style:normal;font-variant:normal;font-weight:normal;font-stretch:normal;font-family:Junegull;-inkscape-font-specification:Junegull;letter-spacing:1.37107px;word-spacing:0.00274214px;fill:#ff9323;fill-opacity:1;stroke:#583200;stroke-width:0.528639;stroke-miterlimit:4;stroke-dasharray:none;stroke-opacity:1"
         id="path3223" />
      <path
         inkscape:connector-curvature="0"
         d="m 124.61745,155.14222 q 0,-1.08122 0.64873,-1.63384 0.67276,-0.57666 1.60981,-0.57666 0.88901,0 1.53774,0.57666 0.67276,0.55262 0.67276,1.63384 v 12.54214 q 0,0.55263 -0.19222,0.98512 -0.19222,0.43248 -0.50457,0.74484 -0.28832,0.28832 -0.69678,0.45651 -0.38444,0.14416 -0.81693,0.14416 -0.57665,0 -1.12927,-0.28832 -0.55262,-0.28833 -0.96108,-0.91303 l -4.37294,-6.51135 v 5.50221 q 0,1.08122 -0.67275,1.65787 -0.64874,0.55262 -1.58579,0.55262 -0.88901,0 -1.53774,-0.55262 -0.64873,-0.57665 -0.64873,-1.65787 v -12.56617 q 0,-0.5286 0.16819,-0.96109 0.19222,-0.43249 0.50457,-0.72081 0.31235,-0.31235 0.69679,-0.45652 0.38443,-0.16819 0.81692,-0.16819 0.60067,0 1.1533,0.28833 0.55262,0.2643 0.96108,0.889 l 4.34891,6.51135 z"
         style="font-style:normal;font-variant:normal;font-weight:normal;font-stretch:normal;font-family:Junegull;-inkscape-font-specification:Junegull;letter-spacing:1.37107px;word-spacing:0.00274214px;fill:#ff9323;fill-opacity:1;stroke:#583200;stroke-width:0.528639;stroke-miterlimit:4;stroke-dasharray:none;stroke-opacity:1"
         id="path3225" />
      <path
         inkscape:connector-curvature="0"
         d="m 134.70923,169.91888 q -2.3066,0 -2.3066,-2.35465 v -12.20577 q 0,-2.35465 2.3066,-2.35465 h 7.92894 q 1.10525,0 1.70593,0.69678 0.6247,0.69679 0.6247,1.65787 0,0.96109 -0.6247,1.65787 -0.60068,0.69679 -1.70593,0.69679 h -5.59831 v 1.60981 h 4.66126 q 1.00913,0 1.56176,0.64874 0.57665,0.6247 0.57665,1.48968 0,0.86497 -0.57665,1.5137 -0.55263,0.62471 -1.56176,0.62471 h -4.66126 v 1.63384 h 5.59831 q 1.10525,0 1.70593,0.69679 0.6247,0.67275 0.6247,1.63384 0,0.96108 -0.6247,1.65787 -0.60068,0.69678 -1.70593,0.69678 z"
         style="font-style:normal;font-variant:normal;font-weight:normal;font-stretch:normal;font-family:Junegull;-inkscape-font-specification:Junegull;letter-spacing:1.37107px;word-spacing:0.00274214px;fill:#ff9323;fill-opacity:1;stroke:#583200;stroke-width:0.528639;stroke-miterlimit:4;stroke-dasharray:none;stroke-opacity:1"
         id="path3227" />
    </g>
  </g>
  <g
     inkscape:groupmode="layer"
     id="layer3"
     inkscape:label="sUn"
     style="display:inline"
     transform="translate(-36.342737,-69.999521)">
    <g
       aria-label="S"
       id="text823"
       style="font-style:normal;font-variant:normal;font-weight:normal;font-stretch:normal;font-size:8.88733px;line-height:1.25;font-family:Boomboom;-inkscape-font-specification:Boomboom;letter-spacing:0px;word-spacing:0px;opacity:1;fill:#ff7700;fill-opacity:1;stroke:#000000;stroke-width:0.451963;stroke-miterlimit:4;stroke-dasharray:none;stroke-opacity:1;stop-opacity:1">
      <path
         inkscape:connector-curvature="0"
         d="m 59.905575,109.93761 q -3.242099,0 -6.100265,1.27978 -3.071463,1.36509 -4.777831,3.83933 -1.877004,2.68753 -1.877004,6.18558 0,3.58337 1.877004,6.2709 1.877005,2.64487 5.204423,3.96731 2.772847,1.10914 5.673673,1.10914 h 4.26592 q 0.426592,0 1.06648,0.17063 -0.639888,0.12798 -1.06648,0.12798 H 52.73883 q -2.303597,0 -3.967306,1.66371 -1.621049,1.62105 -1.621049,3.92465 0,2.30359 1.621049,3.9673 1.663709,1.62105 3.967306,1.62105 h 11.475324 q 3.242099,0 6.100265,-1.27977 3.071463,-1.3651 4.863149,-3.92465 1.791686,-2.60221 1.791686,-6.10027 0,-3.58337 -1.877004,-6.22824 -1.877005,-2.68753 -5.204423,-4.00996 -2.772847,-1.10914 -5.673673,-1.10914 h -4.26592 q -0.426592,0 -1.06648,-0.17064 0.639888,-0.12798 1.06648,-0.12798 h 11.432665 q 2.303597,0 3.924647,-1.62105 1.663708,-1.66371 1.663708,-3.9673 0,-2.3036 -1.663708,-3.92465 -1.62105,-1.66371 -3.924647,-1.66371 z"
         style="font-style:normal;font-variant:normal;font-weight:normal;font-stretch:normal;font-size:42.6592px;font-family:Pouttu;-inkscape-font-specification:Pouttu;fill:#ff7700;fill-opacity:1;stroke:#000000;stroke-width:0.451963;stroke-miterlimit:4;stroke-dasharray:none;stroke-opacity:1"
         id="path3208" />
    </g>
    <g
       aria-label="N"
       id="text863"
       style="font-style:normal;font-variant:normal;font-weight:normal;font-stretch:normal;font-size:42.4243px;line-height:1.25;font-family:Boomboom;-inkscape-font-specification:Boomboom;letter-spacing:0px;word-spacing:0px;opacity:1;fill:#ff7700;fill-opacity:1;stroke:#000000;stroke-width:0.451963;stroke-miterlimit:4;stroke-dasharray:none;stroke-opacity:1;stop-opacity:1">
      <path
         inkscape:connector-curvature="0"
         d="m 125.69417,112.25945 q -0.93334,1.4 -0.93334,3.09697 v 22.82428 q 0,2.29091 1.61213,3.94546 1.65454,1.61212 3.94546,1.61212 2.29091,0 3.90303,-1.61212 1.65455,-1.65455 1.65455,-3.94546 v -9.4182 l 13.36366,13.36366 q 1.61212,1.61212 3.90303,1.61212 2.9697,0 4.62425,-2.46061 0.93333,-1.4 0.93333,-3.09697 v -22.82428 q 0,-2.29091 -1.65454,-3.90303 -1.61213,-1.65455 -3.90304,-1.65455 -2.29091,0 -3.94546,1.65455 -1.61212,1.61212 -1.61212,3.90303 v 9.4182 l -13.36366,-13.36366 q -1.61212,-1.61212 -3.90303,-1.61212 -2.9697,0 -4.62425,2.46061 z"
         style="font-style:normal;font-variant:normal;font-weight:normal;font-stretch:normal;font-family:Pouttu;-inkscape-font-specification:Pouttu;fill:#ff7700;fill-opacity:1;stroke:#000000;stroke-width:0.451963;stroke-miterlimit:4;stroke-dasharray:none;stroke-opacity:1"
         id="path3211" />
    </g>
    <g
       aria-label="U"
       id="text867"
       style="font-style:normal;font-variant:normal;font-weight:normal;font-stretch:normal;font-size:54.6135px;line-height:1.25;font-family:Boomboom;-inkscape-font-specification:Boomboom;letter-spacing:0px;word-spacing:0px;opacity:1;fill:#ff7700;fill-opacity:1;stroke:#000000;stroke-width:0.465455;stroke-miterlimit:4;stroke-dasharray:none;stroke-opacity:1;stop-opacity:1">
      <path
         inkscape:connector-curvature="0"
         d="m 106.21302,113.13297 v 14.63642 q 0,2.51222 -1.09227,4.80599 -1.31072,2.78529 -4.64214,2.78529 -3.276813,0 -4.587537,-2.78529 -1.09227,-2.29377 -1.09227,-4.80599 v -14.63642 q 0,-2.94913 -2.129926,-5.02444 -2.075313,-2.12993 -5.024442,-2.12993 -2.949129,0 -5.079056,2.12993 -2.075312,2.07531 -2.075312,5.02444 V 127.824 q 0,5.62519 2.34838,10.59502 2.512221,5.29751 6.935914,8.19203 4.642148,3.05835 10.704249,3.05835 6.11671,0 10.70424,-3.00374 4.64215,-3.05836 7.09976,-8.62893 2.23915,-5.13367 2.23915,-10.21273 v -14.69103 q 0,-2.94913 -2.12993,-5.02444 -2.07531,-2.12993 -5.02444,-2.12993 -2.94913,0 -5.07905,2.12993 -2.07532,2.07531 -2.07532,5.02444 z"
         style="font-style:normal;font-variant:normal;font-weight:normal;font-stretch:normal;font-family:Pouttu;-inkscape-font-specification:Pouttu;fill:#ff7700;fill-opacity:1;stroke:#000000;stroke-width:0.465455;stroke-miterlimit:4;stroke-dasharray:none;stroke-opacity:1"
         id="path3214" />
    </g>
  </g>
</svg>
