<?xml version="1.0" encoding="UTF-8" standalone="no"?>
<!-- Created with Inkscape (http://www.inkscape.org/) -->

<svg
   xmlns:dc="http://purl.org/dc/elements/1.1/"
   xmlns:cc="http://creativecommons.org/ns#"
   xmlns:rdf="http://www.w3.org/1999/02/22-rdf-syntax-ns#"
   xmlns:svg="http://www.w3.org/2000/svg"
   xmlns="http://www.w3.org/2000/svg"
   xmlns:sodipodi="http://sodipodi.sourceforge.net/DTD/sodipodi-0.dtd"
   xmlns:inkscape="http://www.inkscape.org/namespaces/inkscape"
   width="130.62392mm"
   height="130.62392mm"
   viewBox="0 0 130.62391 130.62391"
   version="1.1"
   id="svg8"
   sodipodi:docname="SunEngine6.svg"
   inkscape:version="0.92.4 (ca053d0, 2019-01-16)"
   inkscape:export-filename="/home/okeanij/SunEngineTelegram3.png"
   inkscape:export-xdpi="93.160469"
   inkscape:export-ydpi="93.160469">
  <defs
     id="defs2" />
  <sodipodi:namedview
     id="base"
     pagecolor="#ffffff"
     bordercolor="#666666"
     borderopacity="1.0"
     inkscape:pageopacity="0.0"
     inkscape:pageshadow="2"
     inkscape:zoom="1"
     inkscape:cx="232.05613"
     inkscape:cy="260.65953"
     inkscape:document-units="mm"
     inkscape:current-layer="layer2"
     showgrid="false"
     inkscape:snap-intersection-paths="true"
     inkscape:snap-smooth-nodes="true"
     inkscape:object-paths="true"
     inkscape:window-width="1366"
     inkscape:window-height="740"
     inkscape:window-x="0"
     inkscape:window-y="28"
     inkscape:window-maximized="1" />
  <metadata
     id="metadata5">
    <rdf:RDF>
      <cc:Work
         rdf:about="">
        <dc:format>image/svg+xml</dc:format>
        <dc:type
           rdf:resource="http://purl.org/dc/dcmitype/StillImage" />
        <dc:title></dc:title>
      </cc:Work>
    </rdf:RDF>
  </metadata>
  <g
     inkscape:groupmode="layer"
     id="layer2"
     inkscape:label="Lines"
     style="display:inline"
     transform="translate(0.5749954,0.92499387)">
    <circle
       r="64.411957"
       cy="64.386963"
       cx="64.736961"
       id="path815"
       style="fill:none;fill-opacity:1;stroke:#ff9c37;stroke-width:1.79999995;stroke-miterlimit:4;stroke-dasharray:none;stroke-opacity:1" />
    <path
       sodipodi:nodetypes="cc"
       inkscape:connector-curvature="0"
       id="path819"
       d="M 14.051915,24.638669 C 38.64071,56.711028 33.057217,85.120878 13.81381,103.82974"
       style="fill:none;stroke:#ff3d00;stroke-width:1;stroke-linecap:butt;stroke-linejoin:miter;stroke-miterlimit:4;stroke-dasharray:none;stroke-opacity:1" />
    <path
       sodipodi:nodetypes="cc"
       inkscape:connector-curvature="0"
       id="path819-3"
       d="M 115.32946,24.757856 C 90.740649,56.830218 96.324149,85.240068 115.56757,103.94893"
       style="fill:none;stroke:#ff3d00;stroke-width:1;stroke-linecap:butt;stroke-linejoin:miter;stroke-miterlimit:4;stroke-dasharray:none;stroke-opacity:1" />
    <path
       inkscape:connector-curvature="0"
       id="path840"
       d="M 36.460792,6.513313 C 54.847987,39.530898 62.775837,78.980308 37.163081,122.59848"
       style="fill:none;stroke:#ff3d00;stroke-width:1;stroke-linecap:butt;stroke-linejoin:miter;stroke-miterlimit:4;stroke-dasharray:none;stroke-opacity:1" />
    <path
       inkscape:connector-curvature="0"
       id="path840-3"
       d="M 91.914429,6.426656 C 73.527219,39.444218 65.599369,78.893628 91.212139,122.5118"
       style="fill:none;stroke:#ff3d00;stroke-width:1.00012505;stroke-linecap:butt;stroke-linejoin:miter;stroke-miterlimit:4;stroke-dasharray:none;stroke-opacity:1" />
    <text
       id="text859"
       y="71.732941"
       x="99.197556"
       style="font-style:normal;font-variant:normal;font-weight:normal;font-stretch:normal;font-size:10.58333302px;line-height:1.25;font-family:Boomboom;-inkscape-font-specification:Boomboom;letter-spacing:0px;word-spacing:0px;fill:#000000;fill-opacity:1;stroke:none;stroke-width:0.26458332"
       xml:space="preserve"><tspan
         style="stroke-width:0.26458332"
         y="80.993355"
         x="99.197556"
         id="tspan857"
         sodipodi:role="line" /></text>
  </g>
  <g
     inkscape:groupmode="layer"
     id="layer1"
     inkscape:label="Colors"
     style="display:inline"
     transform="translate(0.5749954,0.92499387)">
    <path
       inkscape:connector-curvature="0"
       id="path3315"
       d="M 12.846297,101.99005 C -2.1093442,81.743905 -3.4077234,53.412431 9.6229897,31.655371 c 1.5007193,-2.505716 4.1987493,-6.382367 4.4387793,-6.377842 0.229397,0.0043 3.963702,5.361304 5.623383,8.066923 7.669908,12.50351 11.27452,25.400616 10.297316,36.843229 C 28.982176,81.900623 24.297771,92.12987 15.60056,101.59318 l -1.689489,1.83831 z"
       style="display:inline;fill:#3392ff;fill-opacity:1;stroke:none;stroke-width:0.30000001;stroke-miterlimit:4;stroke-dasharray:none;stroke-opacity:1" />
    <path
       inkscape:connector-curvature="0"
       id="path3317"
       d="m 33.847581,120.53077 c -4.664808,-2.59411 -8.594738,-5.40982 -12.245332,-8.7735 -2.238825,-2.06287 -5.448676,-5.44938 -6.617213,-6.98142 l -0.700718,-0.91868 1.552279,-1.6598 C 33.848142,82.938256 35.526769,58.329455 20.515179,33.609035 19.366393,31.717265 17.52325,28.919296 16.419307,27.391327 l -2.007171,-2.778125 1.091496,-1.307801 c 3.560564,-4.266179 8.19436,-8.466624 12.951161,-11.739972 2.561185,-1.762456 7.307363,-4.5470183 7.75022,-4.5470183 0.339865,0 4.079425,7.2614793 6.26781,12.1708333 7.225958,16.210491 10.587704,31.122088 10.587704,46.963541 0,13.662837 -2.251393,25.228113 -7.526166,38.661485 -2.288971,5.82937 -8.024079,17.29789 -8.650224,17.29789 -0.106068,0 -1.47252,-0.71163 -3.036556,-1.58139 z"
       style="display:inline;fill:#00ff6f;fill-opacity:1;stroke:none;stroke-width:0.30000001;stroke-miterlimit:4;stroke-dasharray:none;stroke-opacity:1" />
    <path
       inkscape:connector-curvature="0"
       id="path3319"
       d="m 57.208667,128.06768 c -5.59716,-0.67916 -11.417221,-2.18156 -16.47376,-4.25258 -1.635056,-0.66967 -3.013292,-1.25805 -3.062745,-1.3075 -0.04945,-0.0494 0.398581,-0.92634 0.995635,-1.94863 1.932323,-3.3086 5.784098,-11.37546 7.391463,-15.48011 3.948311,-10.082629 6.033365,-18.459242 7.219543,-29.0042 C 53.788819,71.540688 53.713296,59.932677 53.14195,55.040285 51.411829,40.225389 46.799247,25.710114 39.092368,10.827847 L 36.886116,6.5674919 39.572913,5.4241374 c 8.269956,-3.5192467 15.797651,-5.02030997 25.176379,-5.02030997 7.665127,0 13.547238,0.91569647 20.225802,3.14864747 3.548833,1.1865398 6.718298,2.5664795 6.587218,2.8679827 -0.04956,0.1139931 -0.94388,1.8132108 -1.987383,3.7760434 -7.567121,14.23376 -12.312404,28.868978 -14.282669,44.050034 -0.678254,5.22601 -0.682466,18.26446 -0.0076,23.547916 1.561798,12.227275 5.041437,23.818899 10.613747,35.357269 1.830327,3.78999 4.811096,9.26351 5.163243,9.48114 0.403654,0.24948 -5.544515,2.52431 -9.270955,3.54562 -7.745124,2.1227 -16.875003,2.82436 -24.582021,1.8892 z"
       style="display:inline;fill:#9bff00;fill-opacity:1;stroke:none;stroke-width:0.30000001;stroke-miterlimit:4;stroke-dasharray:none;stroke-opacity:1" />
    <path
       inkscape:connector-curvature="0"
       id="path3321"
       d="m 91.339916,122.42953 c 0,-0.11649 -0.847402,-1.7536 -1.883113,-3.63802 C 83.928149,108.73243 79.851478,98.072549 77.623276,87.848618 75.802374,79.493545 75.328855,74.890766 75.350455,65.75591 c 0.01476,-6.243026 0.120431,-8.314632 0.614058,-12.038542 1.876886,-14.159118 5.814825,-26.617678 12.879062,-40.745832 1.528006,-3.0559379 2.946636,-5.7787993 3.152511,-6.0508015 0.358113,-0.4731412 0.47517,-0.4404863 2.703348,0.7540915 4.488617,2.406457 8.971906,5.572739 13.287506,9.384178 1.90928,1.686232 6.55653,6.694559 6.8227,7.352789 0.0729,0.180266 -0.70259,1.489954 -1.72329,2.910417 -7.68259,10.691511 -12.46398,21.836303 -13.959019,32.536688 -0.603303,4.318005 -0.410315,11.997081 0.403844,16.068989 1.881095,9.408025 6.135155,17.59585 13.283195,25.566243 l 2.31119,2.57709 -1.66813,1.94286 c -5.22134,6.0813 -11.87024,11.3909 -18.965368,15.14516 -2.878836,1.52328 -3.152146,1.63342 -3.152146,1.27029 z"
       style="display:inline;fill:#00ff6f;fill-opacity:1;stroke:none;stroke-width:0.30000001;stroke-miterlimit:4;stroke-dasharray:none;stroke-opacity:1" />
    <path
       inkscape:connector-curvature="0"
       id="path3323"
       d="m 112.90371,100.69609 c -1.26954,-1.446851 -2.98826,-3.560211 -3.81938,-4.69635 -9.213522,-12.594902 -11.993518,-27.249099 -8.07862,-42.584867 2.11034,-8.266803 6.35564,-17.030991 12.25154,-25.292666 1.1151,-1.562547 2.09515,-2.842469 2.17789,-2.844271 0.25203,-0.0055 2.47985,3.209525 4.23684,6.114293 12.4552,20.591677 12.20874,46.393269 -0.64038,67.039722 -1.65096,2.652839 -3.29674,4.894789 -3.59317,4.894789 -0.12456,0 -1.26518,-1.18379 -2.53472,-2.63065 z"
       style="display:inline;fill:#3392ff;fill-opacity:1;stroke:none;stroke-width:0.30000001;stroke-miterlimit:4;stroke-dasharray:none;stroke-opacity:1" />
  </g>
  <g
     inkscape:groupmode="layer"
     id="layer4"
     inkscape:label="engine"
     style="display:inline"
     transform="translate(-36.692737,-70.349521)">
    <text
       xml:space="preserve"
       style="font-style:normal;font-variant:normal;font-weight:normal;font-stretch:normal;font-size:30.06371117px;line-height:1.25;font-family:Boomboom;-inkscape-font-specification:Boomboom;letter-spacing:0px;word-spacing:0px;display:inline;fill:#ff9c37;fill-opacity:1;stroke:#583200;stroke-width:0.66145831;stroke-miterlimit:4;stroke-dasharray:none;stroke-opacity:1"
       x="59.510342"
       y="178.3277"
       id="text1036"><tspan
         sodipodi:role="line"
         id="tspan1034"
         x="59.510342"
         y="178.3277"
         style="fill:#ff9c37;fill-opacity:1;stroke:#583200;stroke-width:0.66145831;stroke-miterlimit:4;stroke-dasharray:none;stroke-opacity:1">ENGINE</tspan></text>
  </g>
  <g
     inkscape:groupmode="layer"
     id="layer3"
     inkscape:label="sUn"
     style="display:inline"
     transform="translate(-36.692737,-70.349521)">
    <g
       id="g896"
       transform="translate(-0.89543508,-6.8294498)"
       style="display:inline;fill:#ff7700;fill-opacity:1;stroke:#000000;stroke-width:0.66145831;stroke-miterlimit:4;stroke-dasharray:none;stroke-opacity:1">
      <text
         id="text823"
         y="155.82341"
         x="48.415234"
         style="font-style:normal;font-variant:normal;font-weight:normal;font-stretch:normal;font-size:13.00684071px;line-height:1.25;font-family:Boomboom;-inkscape-font-specification:Boomboom;letter-spacing:0px;word-spacing:0px;fill:#ff7700;fill-opacity:1;stroke:#000000;stroke-width:0.66145831;stroke-miterlimit:4;stroke-dasharray:none;stroke-opacity:1"
         xml:space="preserve"><tspan
           style="font-size:62.43283844px;fill:#ff7700;fill-opacity:1;stroke:#000000;stroke-width:0.66145831;stroke-miterlimit:4;stroke-dasharray:none;stroke-opacity:1"
           y="155.82341"
           x="48.415234"
           id="tspan821"
           sodipodi:role="line">S</tspan></text>
      <text
         id="text863"
         y="155.89639"
         x="123.17522"
         style="font-style:normal;font-variant:normal;font-weight:normal;font-stretch:normal;font-size:62.08889008px;line-height:1.25;font-family:Boomboom;-inkscape-font-specification:Boomboom;letter-spacing:0px;word-spacing:0px;fill:#ff7700;fill-opacity:1;stroke:#000000;stroke-width:0.66145831;stroke-miterlimit:4;stroke-dasharray:none;stroke-opacity:1"
         xml:space="preserve"><tspan
           style="fill:#ff7700;fill-opacity:1;stroke:#000000;stroke-width:0.66145831;stroke-miterlimit:4;stroke-dasharray:none;stroke-opacity:1"
           y="155.89639"
           x="123.17522"
           id="tspan861"
           sodipodi:role="line">N</tspan></text>
      <text
         id="text867"
         y="160.76225"
         x="80.220688"
         style="font-style:normal;font-variant:normal;font-weight:normal;font-stretch:normal;font-size:77.6111145px;line-height:1.25;font-family:Boomboom;-inkscape-font-specification:Boomboom;letter-spacing:0px;word-spacing:0px;fill:#ff7700;fill-opacity:1;stroke:#000000;stroke-width:0.66145831;stroke-miterlimit:4;stroke-dasharray:none;stroke-opacity:1"
         xml:space="preserve"><tspan
           style="fill:#ff7700;fill-opacity:1;stroke:#000000;stroke-width:0.66145831;stroke-miterlimit:4;stroke-dasharray:none;stroke-opacity:1"
           y="160.76225"
           x="80.220688"
           id="tspan865"
           sodipodi:role="line">U</tspan></text>
    </g>
  </g>
</svg>
