<?xml version="1.0" encoding="UTF-8" standalone="no"?>
<!-- Created with Inkscape (http://www.inkscape.org/) -->

<svg
   xmlns:dc="http://purl.org/dc/elements/1.1/"
   xmlns:cc="http://creativecommons.org/ns#"
   xmlns:rdf="http://www.w3.org/1999/02/22-rdf-syntax-ns#"
   xmlns:svg="http://www.w3.org/2000/svg"
   xmlns="http://www.w3.org/2000/svg"
   xmlns:sodipodi="http://sodipodi.sourceforge.net/DTD/sodipodi-0.dtd"
   xmlns:inkscape="http://www.inkscape.org/namespaces/inkscape"
   width="130.62392mm"
   height="130.62392mm"
   viewBox="0 0 130.62391 130.62391"
   version="1.1"
   id="svg8"
   sodipodi:docname="SunEngine.svg"
   inkscape:version="0.92.4 (ca053d0, 2019-01-16)"
   inkscape:export-filename="/home/okeanij/SunEngineTelegram3.png"
   inkscape:export-xdpi="93.160469"
   inkscape:export-ydpi="93.160469">
  <defs
     id="defs2" />
  <sodipodi:namedview
     id="base"
     pagecolor="#ffffff"
     bordercolor="#666666"
     borderopacity="1.0"
     inkscape:pageopacity="0.0"
     inkscape:pageshadow="2"
     inkscape:zoom="1"
     inkscape:cx="163.39473"
     inkscape:cy="261.65953"
     inkscape:document-units="mm"
     inkscape:current-layer="layer4"
     showgrid="false"
     inkscape:snap-intersection-paths="true"
     inkscape:snap-smooth-nodes="true"
     inkscape:object-paths="true"
     inkscape:window-width="1366"
     inkscape:window-height="740"
     inkscape:window-x="0"
     inkscape:window-y="28"
     inkscape:window-maximized="1" />
  <metadata
     id="metadata5">
    <rdf:RDF>
      <cc:Work
         rdf:about="">
        <dc:format>image/svg+xml</dc:format>
        <dc:type
           rdf:resource="http://purl.org/dc/dcmitype/StillImage" />
        <dc:title></dc:title>
      </cc:Work>
    </rdf:RDF>
  </metadata>
  <g
     inkscape:groupmode="layer"
     id="layer2"
     inkscape:label="Lines"
     style="display:inline"
     transform="translate(0.5749954,0.92499387)">
    <circle
       r="64.411957"
       cy="64.386963"
       cx="64.736961"
       id="path815"
       style="fill:none;fill-opacity:1;stroke:#ff9c37;stroke-width:1.79999995;stroke-miterlimit:4;stroke-dasharray:none;stroke-opacity:1" />
    <path
       sodipodi:nodetypes="cc"
       inkscape:connector-curvature="0"
       id="path819"
       d="M 14.051915,24.638669 C 38.64071,56.711028 33.057217,85.120878 13.81381,103.82974"
       style="fill:none;stroke:#ff3d00;stroke-width:1;stroke-linecap:butt;stroke-linejoin:miter;stroke-miterlimit:4;stroke-dasharray:none;stroke-opacity:1" />
    <path
       sodipodi:nodetypes="cc"
       inkscape:connector-curvature="0"
       id="path819-3"
       d="M 115.32946,24.757856 C 90.740649,56.830218 96.324149,85.240068 115.56757,103.94893"
       style="fill:none;stroke:#ff3d00;stroke-width:1;stroke-linecap:butt;stroke-linejoin:miter;stroke-miterlimit:4;stroke-dasharray:none;stroke-opacity:1" />
    <path
       inkscape:connector-curvature="0"
       id="path840"
       d="M 36.460792,6.513313 C 54.847987,39.530898 62.775837,78.980308 37.163081,122.59848"
       style="fill:none;stroke:#ff3d00;stroke-width:1;stroke-linecap:butt;stroke-linejoin:miter;stroke-miterlimit:4;stroke-dasharray:none;stroke-opacity:1" />
    <path
       inkscape:connector-curvature="0"
       id="path840-3"
       d="M 91.914429,6.426656 C 73.527219,39.444218 65.599369,78.893628 91.212139,122.5118"
       style="fill:none;stroke:#ff3d00;stroke-width:1.00012505;stroke-linecap:butt;stroke-linejoin:miter;stroke-miterlimit:4;stroke-dasharray:none;stroke-opacity:1" />
    <text
       id="text859"
       y="71.732941"
       x="99.197556"
       style="font-style:normal;font-variant:normal;font-weight:normal;font-stretch:normal;font-size:10.58333302px;line-height:1.25;font-family:Boomboom;-inkscape-font-specification:Boomboom;letter-spacing:0px;word-spacing:0px;fill:#000000;fill-opacity:1;stroke:none;stroke-width:0.26458332"
       xml:space="preserve"><tspan
         style="stroke-width:0.26458332"
         y="80.993355"
         x="99.197556"
         id="tspan857"
         sodipodi:role="line" /></text>
  </g>
  <g
     inkscape:groupmode="layer"
     id="layer1"
     inkscape:label="Colors"
     style="display:inline"
     transform="translate(0.5749954,0.92499387)">
    <path
       inkscape:connector-curvature="0"
       id="path3315"
       d="M 12.846297,101.99005 C -2.1093442,81.743905 -3.4077234,53.412431 9.6229897,31.655371 c 1.5007193,-2.505716 4.1987493,-6.382367 4.4387793,-6.377842 0.229397,0.0043 3.963702,5.361304 5.623383,8.066923 7.669908,12.50351 11.27452,25.400616 10.297316,36.843229 C 28.982176,81.900623 24.297771,92.12987 15.60056,101.59318 l -1.689489,1.83831 z"
       style="display:inline;fill:#3392ff;fill-opacity:1;stroke:none;stroke-width:0.30000001;stroke-miterlimit:4;stroke-dasharray:none;stroke-opacity:1" />
    <path
       inkscape:connector-curvature="0"
       id="path3317"
       d="m 33.847581,120.53077 c -4.664808,-2.59411 -8.594738,-5.40982 -12.245332,-8.7735 -2.238825,-2.06287 -5.448676,-5.44938 -6.617213,-6.98142 l -0.700718,-0.91868 1.552279,-1.6598 C 33.848142,82.938256 35.526769,58.329455 20.515179,33.609035 19.366393,31.717265 17.52325,28.919296 16.419307,27.391327 l -2.007171,-2.778125 1.091496,-1.307801 c 3.560564,-4.266179 8.19436,-8.466624 12.951161,-11.739972 2.561185,-1.762456 7.307363,-4.5470183 7.75022,-4.5470183 0.339865,0 4.079425,7.2614793 6.26781,12.1708333 7.225958,16.210491 10.587704,31.122088 10.587704,46.963541 0,13.662837 -2.251393,25.228113 -7.526166,38.661485 -2.288971,5.82937 -8.024079,17.29789 -8.650224,17.29789 -0.106068,0 -1.47252,-0.71163 -3.036556,-1.58139 z"
       style="display:inline;fill:#00ff6f;fill-opacity:1;stroke:none;stroke-width:0.30000001;stroke-miterlimit:4;stroke-dasharray:none;stroke-opacity:1" />
    <path
       inkscape:connector-curvature="0"
       id="path3319"
       d="m 57.208667,128.06768 c -5.59716,-0.67916 -11.417221,-2.18156 -16.47376,-4.25258 -1.635056,-0.66967 -3.013292,-1.25805 -3.062745,-1.3075 -0.04945,-0.0494 0.398581,-0.92634 0.995635,-1.94863 1.932323,-3.3086 5.784098,-11.37546 7.391463,-15.48011 3.948311,-10.082629 6.033365,-18.459242 7.219543,-29.0042 C 53.788819,71.540688 53.713296,59.932677 53.14195,55.040285 51.411829,40.225389 46.799247,25.710114 39.092368,10.827847 L 36.886116,6.5674919 39.572913,5.4241374 c 8.269956,-3.5192467 15.797651,-5.02030997 25.176379,-5.02030997 7.665127,0 13.547238,0.91569647 20.225802,3.14864747 3.548833,1.1865398 6.718298,2.5664795 6.587218,2.8679827 -0.04956,0.1139931 -0.94388,1.8132108 -1.987383,3.7760434 -7.567121,14.23376 -12.312404,28.868978 -14.282669,44.050034 -0.678254,5.22601 -0.682466,18.26446 -0.0076,23.547916 1.561798,12.227275 5.041437,23.818899 10.613747,35.357269 1.830327,3.78999 4.811096,9.26351 5.163243,9.48114 0.403654,0.24948 -5.544515,2.52431 -9.270955,3.54562 -7.745124,2.1227 -16.875003,2.82436 -24.582021,1.8892 z"
       style="display:inline;fill:#9bff00;fill-opacity:1;stroke:none;stroke-width:0.30000001;stroke-miterlimit:4;stroke-dasharray:none;stroke-opacity:1" />
    <path
       inkscape:connector-curvature="0"
       id="path3321"
       d="m 91.339916,122.42953 c 0,-0.11649 -0.847402,-1.7536 -1.883113,-3.63802 C 83.928149,108.73243 79.851478,98.072549 77.623276,87.848618 75.802374,79.493545 75.328855,74.890766 75.350455,65.75591 c 0.01476,-6.243026 0.120431,-8.314632 0.614058,-12.038542 1.876886,-14.159118 5.814825,-26.617678 12.879062,-40.745832 1.528006,-3.0559379 2.946636,-5.7787993 3.152511,-6.0508015 0.358113,-0.4731412 0.47517,-0.4404863 2.703348,0.7540915 4.488617,2.406457 8.971906,5.572739 13.287506,9.384178 1.90928,1.686232 6.55653,6.694559 6.8227,7.352789 0.0729,0.180266 -0.70259,1.489954 -1.72329,2.910417 -7.68259,10.691511 -12.46398,21.836303 -13.959019,32.536688 -0.603303,4.318005 -0.410315,11.997081 0.403844,16.068989 1.881095,9.408025 6.135155,17.59585 13.283195,25.566243 l 2.31119,2.57709 -1.66813,1.94286 c -5.22134,6.0813 -11.87024,11.3909 -18.965368,15.14516 -2.878836,1.52328 -3.152146,1.63342 -3.152146,1.27029 z"
       style="display:inline;fill:#00ff6f;fill-opacity:1;stroke:none;stroke-width:0.30000001;stroke-miterlimit:4;stroke-dasharray:none;stroke-opacity:1" />
    <path
       inkscape:connector-curvature="0"
       id="path3323"
       d="m 112.90371,100.69609 c -1.26954,-1.446851 -2.98826,-3.560211 -3.81938,-4.69635 -9.213522,-12.594902 -11.993518,-27.249099 -8.07862,-42.584867 2.11034,-8.266803 6.35564,-17.030991 12.25154,-25.292666 1.1151,-1.562547 2.09515,-2.842469 2.17789,-2.844271 0.25203,-0.0055 2.47985,3.209525 4.23684,6.114293 12.4552,20.591677 12.20874,46.393269 -0.64038,67.039722 -1.65096,2.652839 -3.29674,4.894789 -3.59317,4.894789 -0.12456,0 -1.26518,-1.18379 -2.53472,-2.63065 z"
       style="display:inline;fill:#3392ff;fill-opacity:1;stroke:none;stroke-width:0.30000001;stroke-miterlimit:4;stroke-dasharray:none;stroke-opacity:1" />
  </g>
  <g
     inkscape:groupmode="layer"
     id="layer4"
     inkscape:label="engine"
     style="display:inline"
     transform="translate(-36.692737,-70.349521)">
    <g
       aria-label="ENGINE"
       style="font-style:normal;font-variant:normal;font-weight:normal;font-stretch:normal;font-size:30.06371117px;line-height:1.25;font-family:Boomboom;-inkscape-font-specification:Boomboom;letter-spacing:0px;word-spacing:0px;display:inline;fill:#ff9c37;fill-opacity:1;stroke:#583200;stroke-width:0.66145831;stroke-miterlimit:4;stroke-dasharray:none;stroke-opacity:1"
       id="text1036">
      <path
         d="m 60.258999,159.27365 q 4.051554,-0.17616 6.78195,-0.17616 2.495523,0 3.919439,0.1468 0.63122,0.14679 1.086286,0.58718 0.469746,0.42571 0.675259,0.98353 0.190835,0.51378 0.190835,1.08629 0,0.044 0,0.0734 -0.01468,0.61654 -0.249553,1.11565 -0.234872,0.46974 -0.733977,0.79269 -0.484425,0.30827 -1.145005,0.30827 -0.02936,0 -0.05872,0 -0.264232,-0.0147 -0.822054,-0.0294 -0.557823,-0.0294 -0.807376,-0.0294 -0.249552,-0.0147 -0.704618,-0.0147 -0.440386,-0.0147 -0.880773,0.0147 -0.440386,0.0147 -0.96885,0.0587 v 2.37809 q 0.67526,0.0587 1.511994,0.0587 0.264232,-0.0147 0.528463,-0.0147 0.499105,-0.0147 0.939491,0 0.616541,0 1.174364,0.0147 0.499105,0 0.910132,0.23487 0.411027,0.23487 0.63122,0.61654 0.220194,0.38167 0.33763,0.83674 0.117436,0.45506 0.02936,0.92481 -0.08808,0.45506 -0.293591,0.83673 -0.205513,0.38167 -0.63122,0.61654 -0.411028,0.23488 -0.954171,0.23488 -0.6459,0 -2.040457,0.0294 -1.394557,0.0293 -2.084495,0.0293 -0.02936,0.1468 -0.02936,0.55783 0,0.41102 0.01468,0.91013 0.01468,0.4991 0.01468,0.61654 0.880772,0.16148 2.040457,0.16148 1.717506,0 4.066234,-0.35231 0.587182,1.46795 0.601861,2.53956 0,2.52488 -3.332257,2.78911 -1.409236,0.11744 -2.89187,0.11744 -1.467955,0 -3.038666,-0.11744 -0.98353,-0.0587 -1.64411,-0.38167 -0.660579,-0.33763 -1.012888,-0.66058 -0.33763,-0.33763 -0.513785,-1.20372 -0.176154,-0.86609 -0.205513,-1.33584 -0.01468,-0.46974 -0.02936,-1.74686 0,-0.17616 -0.01468,-0.27892 0,-0.10275 0,-0.26423 0,-0.16147 0,-0.29359 0.02936,-1.62943 0.02936,-3.14142 0,-5.71034 -0.396347,-9.62978 z"
         style="fill:#ff9c37;fill-opacity:1;stroke:#583200;stroke-width:0.66145831;stroke-miterlimit:4;stroke-dasharray:none;stroke-opacity:1"
         id="path847" />
      <path
         d="m 74.938545,176.03769 q -0.117437,-0.58718 -0.117437,-1.74687 0.01468,-1.15968 0.117437,-2.87719 0,-1.15968 0.04404,-5.0938 0.02936,-2.34873 0.02936,-3.99284 0,-1.08628 -0.01468,-1.8643 0.513784,-0.4991 1.365198,-0.85141 0.851414,-0.35231 1.761545,-0.46975 0.249553,-0.0294 0.499105,-0.0294 0.6459,0.0147 1.262441,0.22019 0.851414,0.2936 1.247761,1.04225 0.440387,0.77802 0.822055,2.0845 0.396348,1.2918 0.880773,3.31758 0.484425,2.01109 0.6459,2.62763 0.08808,-1.13032 0.102757,-2.46616 0,-0.44039 0,-0.93949 0,-0.99821 -0.01468,-2.23129 -0.02936,-1.84962 -0.02936,-2.62764 0.455066,-0.39635 1.247762,-0.66058 0.792695,-0.26423 1.644109,-0.32295 0.161475,-0.0147 0.293591,-0.0147 0.675259,0 1.321159,0.23487 0.792695,0.29359 1.174364,0.93949 0.132115,0.24956 0.220193,0.58719 0.08808,0.32295 0.102757,0.76333 0.02936,0.45507 0.02936,0.77802 0,0.11743 0.01468,0.23487 0,0.27891 -0.01468,0.67526 -0.01468,0.58718 -0.01468,0.86609 -0.05872,3.96348 -0.05872,11.90512 -0.264232,0.76333 -0.851414,1.32115 -0.572502,0.52847 -1.306479,0.73398 -0.499105,0.13212 -1.012889,0.1468 -0.220193,0 -0.455066,-0.0294 -0.733977,-0.0881 -1.394557,-0.58718 -0.6459,-0.49911 -0.998209,-1.33584 -0.778016,-1.82027 -2.510203,-7.72144 -0.05872,2.05513 -0.0734,4.21303 -0.01468,2.14321 0.0734,4.3745 -0.528463,0.49911 -1.467954,0.7927 -0.880773,0.27891 -1.805584,0.27891 -0.04404,0 -0.102757,0 -0.96885,-0.0147 -1.732187,-0.58718 -0.763336,-0.58719 -0.924811,-1.68815 z"
         style="fill:#ff9c37;fill-opacity:1;stroke:#583200;stroke-width:0.66145831;stroke-miterlimit:4;stroke-dasharray:none;stroke-opacity:1"
         id="path849" />
      <path
         d="m 91.144763,168.83003 q -0.01468,-0.38167 -0.01468,-0.73398 0,-4.24239 2.524882,-6.69387 1.981739,-1.92302 4.888289,-2.23129 0.513784,-0.0587 0.998209,-0.0587 1.952377,0 3.508407,0.85142 1.89367,1.02756 2.20194,2.84783 0.044,0.30827 0.044,0.61654 0,0.19083 -0.0147,0.38167 -0.0734,0.74865 -0.36699,1.30648 -0.29359,0.55782 -0.73398,0.85141 -0.42571,0.27891 -0.95417,0.44039 -0.46975,0.14679 -0.92481,0.14679 -0.0881,0 -0.16148,0 -0.55782,-0.0294 -1.0716,-0.10276 0.0294,-0.19083 0.0294,-0.3523 0,-0.76334 -0.42571,-1.30648 -0.48443,-0.66058 -1.071609,-0.66058 -0.01468,0 -0.04404,0 -0.01468,0 -0.02936,0 -1.247762,0 -1.96706,1.58539 -0.528463,1.20372 -0.528463,2.70103 0,0.51379 0.05872,1.07161 0.278911,2.33405 1.541352,3.43501 0.807375,0.70462 1.893659,0.70462 0.20552,0 0.42571,-0.0294 0.0881,-0.33763 0.11744,-1.17436 0.0147,-0.5725 0.0147,-1.08629 0,-0.26423 0,-0.51378 0,-0.24955 0,-0.48443 0,-0.48442 0.0147,-0.91013 0.68993,-0.23487 1.57071,-0.35231 0.36699,-0.0587 0.74865,-0.0587 0.49911,0 0.99821,0.0881 0.88078,0.16148 1.10097,0.73398 0.22019,0.55782 0.29359,1.37988 0.0294,0.52846 0.0294,0.98353 0,0.26423 0,0.48442 -0.044,0.66058 -0.13212,1.70283 -0.0881,1.04225 -0.10275,1.52667 -1.30648,1.15969 -2.86252,1.76155 -1.55603,0.60186 -4.022191,0.6459 -0.513784,0 -1.086287,-0.0734 -0.557823,-0.0881 -1.321159,-0.35231 -0.748657,-0.26423 -1.438596,-0.67526 -0.675259,-0.42571 -1.365197,-1.15968 -0.689939,-0.74866 -1.203723,-1.70283 -0.499105,-0.96885 -0.822055,-2.39277 -0.32295,-1.43859 -0.337629,-3.14142 z"
         style="fill:#ff9c37;fill-opacity:1;stroke:#583200;stroke-width:0.66145831;stroke-miterlimit:4;stroke-dasharray:none;stroke-opacity:1"
         id="path851" />
      <path
         d="m 107.71797,174.54037 q -0.0587,-6.70855 -0.0587,-10.31972 0,-3.62584 0,-4.34514 1.86431,-0.7927 3.09739,-0.7927 1.33584,0.0147 2.15789,0.66058 0.77802,0.61654 0.77802,1.90834 0,0.0734 0,0.1468 -0.044,2.02578 -0.044,3.90476 0,0.30827 0,0.61654 0,2.15789 0.0294,5.84246 0.044,3.66988 0.044,4.87361 -0.0147,0.0147 -0.13212,0.16147 -0.11744,0.1468 -0.20551,0.2202 -0.0734,0.0734 -0.26424,0.23487 -0.17615,0.14679 -0.41102,0.24955 -0.2202,0.0881 -0.52847,0.19084 -0.30827,0.10275 -0.73397,0.16147 -0.41103,0.044 -0.91014,0.044 -0.0734,0 -0.14679,0 -0.46975,0 -0.85142,-0.0881 -0.44038,-0.0881 -0.73397,-0.22019 -0.29359,-0.1468 -0.49911,-0.44039 -0.20551,-0.29359 -0.32295,-0.54314 -0.10275,-0.26423 -0.16147,-0.7193 -0.0587,-0.46974 -0.0734,-0.80737 -0.0147,-0.35231 -0.0294,-0.9395 z"
         style="fill:#ff9c37;fill-opacity:1;stroke:#583200;stroke-width:0.66145831;stroke-miterlimit:4;stroke-dasharray:none;stroke-opacity:1"
         id="path853" />
      <path
         d="m 115.63025,176.03769 q -0.11744,-0.58718 -0.11744,-1.74687 0.0147,-1.15968 0.11744,-2.87719 0,-1.15968 0.044,-5.0938 0.0294,-2.34873 0.0294,-3.99284 0,-1.08628 -0.0147,-1.8643 0.51378,-0.4991 1.3652,-0.85141 0.85141,-0.35231 1.76154,-0.46975 0.24955,-0.0294 0.49911,-0.0294 0.6459,0.0147 1.26244,0.22019 0.85141,0.2936 1.24776,1.04225 0.44038,0.77802 0.82205,2.0845 0.39635,1.2918 0.88078,3.31758 0.48442,2.01109 0.6459,2.62763 0.0881,-1.13032 0.10275,-2.46616 0,-0.44039 0,-0.93949 0,-0.99821 -0.0147,-2.23129 -0.0294,-1.84962 -0.0294,-2.62764 0.45507,-0.39635 1.24777,-0.66058 0.79269,-0.26423 1.6441,-0.32295 0.16148,-0.0147 0.2936,-0.0147 0.67525,0 1.32115,0.23487 0.7927,0.29359 1.17437,0.93949 0.13211,0.24956 0.22019,0.58719 0.0881,0.32295 0.10276,0.76333 0.0294,0.45507 0.0294,0.77802 0,0.11743 0.0147,0.23487 0,0.27891 -0.0147,0.67526 -0.0147,0.58718 -0.0147,0.86609 -0.0587,3.96348 -0.0587,11.90512 -0.26423,0.76333 -0.85141,1.32115 -0.57251,0.52847 -1.30648,0.73398 -0.49911,0.13212 -1.01289,0.1468 -0.2202,0 -0.45507,-0.0294 -0.73398,-0.0881 -1.39456,-0.58718 -0.6459,-0.49911 -0.9982,-1.33584 -0.77802,-1.82027 -2.51021,-7.72144 -0.0587,2.05513 -0.0734,4.21303 -0.0147,2.14321 0.0734,4.3745 -0.52846,0.49911 -1.46795,0.7927 -0.88077,0.27891 -1.80559,0.27891 -0.044,0 -0.10275,0 -0.96885,-0.0147 -1.73219,-0.58718 -0.76334,-0.58719 -0.92481,-1.68815 z"
         style="fill:#ff9c37;fill-opacity:1;stroke:#583200;stroke-width:0.66145831;stroke-miterlimit:4;stroke-dasharray:none;stroke-opacity:1"
         id="path855" />
      <path
         d="m 131.9539,159.27365 q 4.05155,-0.17616 6.78195,-0.17616 2.49552,0 3.91944,0.1468 0.63122,0.14679 1.08628,0.58718 0.46975,0.42571 0.67526,0.98353 0.19084,0.51378 0.19084,1.08629 0,0.044 0,0.0734 -0.0147,0.61654 -0.24955,1.11565 -0.23488,0.46974 -0.73398,0.79269 -0.48443,0.30827 -1.14501,0.30827 -0.0294,0 -0.0587,0 -0.26424,-0.0147 -0.82206,-0.0294 -0.55782,-0.0294 -0.80737,-0.0294 -0.24956,-0.0147 -0.70462,-0.0147 -0.44039,-0.0147 -0.88078,0.0147 -0.44038,0.0147 -0.96885,0.0587 v 2.37809 q 0.67526,0.0587 1.512,0.0587 0.26423,-0.0147 0.52846,-0.0147 0.49911,-0.0147 0.93949,0 0.61654,0 1.17437,0.0147 0.4991,0 0.91013,0.23487 0.41103,0.23487 0.63122,0.61654 0.22019,0.38167 0.33763,0.83674 0.11743,0.45506 0.0294,0.92481 -0.0881,0.45506 -0.29359,0.83673 -0.20552,0.38167 -0.63122,0.61654 -0.41103,0.23488 -0.95417,0.23488 -0.6459,0 -2.04046,0.0294 -1.39456,0.0293 -2.0845,0.0293 -0.0294,0.1468 -0.0294,0.55783 0,0.41102 0.0147,0.91013 0.0147,0.4991 0.0147,0.61654 0.88078,0.16148 2.04046,0.16148 1.71751,0 4.06623,-0.35231 0.58719,1.46795 0.60187,2.53956 0,2.52488 -3.33226,2.78911 -1.40924,0.11744 -2.89187,0.11744 -1.46796,0 -3.03867,-0.11744 -0.98353,-0.0587 -1.64411,-0.38167 -0.66058,-0.33763 -1.01289,-0.66058 -0.33763,-0.33763 -0.51378,-1.20372 -0.17615,-0.86609 -0.20551,-1.33584 -0.0147,-0.46974 -0.0294,-1.74686 0,-0.17616 -0.0147,-0.27892 0,-0.10275 0,-0.26423 0,-0.16147 0,-0.29359 0.0294,-1.62943 0.0294,-3.14142 0,-5.71034 -0.39635,-9.62978 z"
         style="fill:#ff9c37;fill-opacity:1;stroke:#583200;stroke-width:0.66145831;stroke-miterlimit:4;stroke-dasharray:none;stroke-opacity:1"
         id="path857" />
    </g>
  </g>
  <g
     inkscape:groupmode="layer"
     id="layer3"
     inkscape:label="sUn"
     style="display:inline"
     transform="translate(-36.692737,-70.349521)">
    <g
       id="g896"
       transform="translate(-0.89543508,-6.8294498)"
       style="display:inline;fill:#ff7700;fill-opacity:1;stroke:#000000;stroke-width:0.66145831;stroke-miterlimit:4;stroke-dasharray:none;stroke-opacity:1">
      <g
         aria-label="S"
         style="font-style:normal;font-variant:normal;font-weight:normal;font-stretch:normal;font-size:13.00684071px;line-height:1.25;font-family:Boomboom;-inkscape-font-specification:Boomboom;letter-spacing:0px;word-spacing:0px;fill:#ff7700;fill-opacity:1;stroke:#000000;stroke-width:0.66145831;stroke-miterlimit:4;stroke-dasharray:none;stroke-opacity:1"
         id="text823">
        <path
           d="m 49.787049,145.58052 q 0.304848,-1.4023 1.127937,-2.49975 0.853574,-1.09745 2.255874,-1.76812 1.158422,-0.54872 2.408298,-0.57921 0.243878,0 0.457272,0.0305 1.768117,2.68266 4.26787,4.2069 2.194904,1.31084 3.993506,1.28036 0.274363,0 0.518242,0 2.011995,-0.2134 2.438782,-2.10345 0.09145,-0.30485 0.09145,-0.57921 0.03048,-0.67067 -0.457272,-1.28036 -0.670665,-0.79261 -1.524239,-1.12794 -0.853574,-0.36582 -2.072966,-0.73164 -1.219391,-0.3963 -1.463269,-0.51824 -4.786111,-1.89005 -6.157927,-2.5912 -3.475265,-1.85958 -4.603202,-4.72515 -0.70115,-1.76811 -0.70115,-4.17641 0,-0.67067 0.06097,-1.37182 0.182909,-2.53023 1.432785,-4.63368 1.249876,-2.10345 3.139933,-3.47527 1.920541,-1.37181 4.389809,-2.16442 2.438783,-0.76212 4.938535,-0.82309 0.152424,0 0.335333,0 2.347328,0 4.725141,0.64018 2.560722,0.70115 4.572718,2.13394 1.829087,1.31084 2.835085,3.01799 1.066967,1.7986 1.066967,3.56672 0,1.70715 -1.34133,3.35333 -1.4023,1.70715 -4.145931,2.86557 -1.158422,-2.86557 -3.932537,-4.72514 -1.951026,-1.31085 -3.475265,-1.31085 -0.487757,0 -0.914544,0.12194 -1.493754,0.45727 -1.646178,2.43878 0,0.0915 -0.03048,0.18291 0,0.97551 0.975513,1.76812 1.036483,0.88406 2.8046,1.58521 1.798602,0.70115 3.719144,1.37181 1.920541,0.67067 3.902052,1.64618 1.981511,0.97551 3.109448,2.10345 1.432785,1.4023 2.042481,3.68866 0.426787,1.61569 0.426787,3.23139 -0.03049,0.70115 -0.09146,1.37181 -0.243878,2.31685 -1.188906,4.08496 -1.127937,2.07297 -3.048479,3.62769 -1.920541,1.52424 -4.2069,2.31685 -2.286359,0.76212 -4.816596,1.03648 -0.975513,0.0914 -1.920541,0.0914 -1.585209,-0.0305 -3.109448,-0.27436 -2.499753,-0.42679 -4.633687,-1.34133 -2.133935,-0.91454 -3.810598,-2.49975 -1.646179,-1.58521 -2.438783,-3.59721 -0.396302,-0.94503 -0.396302,-1.89005 0,-0.48776 0.09145,-0.97552 z"
           style="font-size:62.43283844px;fill:#ff7700;fill-opacity:1;stroke:#000000;stroke-width:0.66145831;stroke-miterlimit:4;stroke-dasharray:none;stroke-opacity:1"
           id="path838" />
      </g>
      <g
         aria-label="N"
         style="font-style:normal;font-variant:normal;font-weight:normal;font-stretch:normal;font-size:62.08889008px;line-height:1.25;font-family:Boomboom;-inkscape-font-specification:Boomboom;letter-spacing:0px;word-spacing:0px;fill:#ff7700;fill-opacity:1;stroke:#000000;stroke-width:0.66145831;stroke-miterlimit:4;stroke-dasharray:none;stroke-opacity:1"
         id="text863">
        <path
           d="m 124.96391,151.16697 q -0.24253,-1.21268 -0.24253,-3.60771 0.0303,-2.39503 0.24253,-5.9421 0,-2.39503 0.091,-10.51994 0.0606,-4.8507 0.0606,-8.24618 0,-2.24345 -0.0303,-3.85024 1.06109,-1.03078 2.81946,-1.75838 1.75838,-0.7276 3.63802,-0.97014 0.51539,-0.0606 1.03078,-0.0606 1.33394,0.0303 2.60725,0.45475 1.75837,0.60634 2.57693,2.1525 0.9095,1.60679 1.69774,4.30499 0.81855,2.66788 1.81901,6.8516 1.00046,4.15341 1.33394,5.42672 0.1819,-2.3344 0.21222,-5.09323 0,-0.90951 0,-1.94028 0,-2.06154 -0.0303,-4.60816 -0.0606,-3.81992 -0.0606,-5.42671 0.93982,-0.81856 2.57693,-1.36426 1.63711,-0.5457 3.39549,-0.66697 0.33348,-0.0303 0.60633,-0.0303 1.39458,0 2.72852,0.48507 1.63711,0.60634 2.42535,1.94028 0.27285,0.51539 0.45475,1.21267 0.1819,0.66697 0.21222,1.57648 0.0606,0.93982 0.0606,1.60679 0,0.24254 0.0303,0.48507 0,0.57602 -0.0303,1.39458 -0.0303,1.21267 -0.0303,1.78869 -0.12126,8.18555 -0.12126,24.58696 -0.54571,1.57647 -1.75838,2.72851 -1.18236,1.09141 -2.6982,1.51584 -1.03077,0.27286 -2.09186,0.30317 -0.45475,0 -0.93982,-0.0606 -1.51585,-0.1819 -2.8801,-1.21267 -1.33394,-1.03078 -2.06155,-2.75884 -1.60679,-3.75929 -5.18418,-15.94666 -0.12127,4.24436 -0.15158,8.70094 -0.0303,4.42626 0.15158,9.03442 -1.0914,1.03077 -3.03168,1.63711 -1.81901,0.57602 -3.72897,0.57602 -0.0909,0 -0.21222,0 -2.00091,-0.0303 -3.57739,-1.21268 -1.57647,-1.21267 -1.90996,-3.48643 z"
           style="fill:#ff7700;fill-opacity:1;stroke:#000000;stroke-width:0.66145831;stroke-miterlimit:4;stroke-dasharray:none;stroke-opacity:1"
           id="path841" />
      </g>
      <g
         aria-label="U"
         style="font-style:normal;font-variant:normal;font-weight:normal;font-stretch:normal;font-size:77.6111145px;line-height:1.25;font-family:Boomboom;-inkscape-font-specification:Boomboom;letter-spacing:0px;word-spacing:0px;fill:#ff7700;fill-opacity:1;stroke:#000000;stroke-width:0.66145831;stroke-miterlimit:4;stroke-dasharray:none;stroke-opacity:1"
         id="text867">
        <path
           d="m 82.191283,128.09586 q 0.0379,-6.32864 0.0379,-10.15615 0,-2.53903 0,-3.97908 2.501139,-1.9327 6.290744,-2.53904 1.477946,-0.22737 2.842204,-0.22737 2.122179,0 3.94119,0.60633 2.955892,0.9853 3.221164,3.25906 0.0379,0.22738 0,0.64424 0,0.87161 -0.07579,2.46324 -0.151584,2.42535 -0.378961,5.49493 -0.18948,3.06958 -0.37896,6.7076 -0.113688,2.27376 -0.113688,4.50963 0,1.32636 0.0379,2.61483 0.113688,3.41064 0.454752,6.25285 0.378961,2.8422 1.364258,4.54752 0.947404,1.66743 2.425344,1.66743 0.0379,0 0.0758,0 2.16007,-0.0379 3.22116,-3.29696 0.9853,-3.06958 1.02319,-7.655 -0.0379,-0.26527 -0.0379,-0.49265 -0.0758,-4.92649 -0.45476,-9.77718 -0.34106,-4.88859 -0.75792,-9.24664 -0.34106,-3.67591 -0.34106,-5.04017 0,-0.22738 0,-0.41686 1.97059,-1.70532 5.30545,-2.53903 1.70532,-0.41686 3.29695,-0.41686 1.55374,0.0379 3.03169,0.41686 2.99379,0.83371 3.56223,3.48643 2.08428,9.47401 2.12218,17.96273 0,4.58542 -0.64424,8.86768 -1.36426,10.11824 -5.64651,14.47629 -4.24436,4.35804 -12.80887,4.69911 -0.75792,0.0379 -1.51584,0.0379 -9.246634,-0.0379 -13.869952,-4.43384 -5.002279,-4.77491 -5.191759,-13.75627 -0.0379,-2.38745 -0.0379,-6.85919 -0.0379,-3.37274 0,-7.88237 z"
           style="fill:#ff7700;fill-opacity:1;stroke:#000000;stroke-width:0.66145831;stroke-miterlimit:4;stroke-dasharray:none;stroke-opacity:1"
           id="path844" />
      </g>
    </g>
  </g>
</svg>
